<svg xmlns="http://www.w3.org/2000/svg" viewBox="0 0 418.92 537.8"><defs><style>.cls-1{fill:none;stroke:#fff;stroke-miterlimit:10;stroke-width:9px;}.cls-2{font-size:69.33px;fill:#fff;font-family:IndieFlower, Indie Flower;}</style></defs><g id="Layer_2" data-name="Layer 2"><g id="Layer_1-2" data-name="Layer 1"><path class="cls-1" d="M203.6,4c63.57,33,93,108.35,102.53,179.34C312,227,311.7,273.94,289.38,311.91c-30.34,51.61-93.88,74-153.5,79.39-44.43,4-96.07-2.68-121.1-39.61l42.78-14.25A206.4,206.4,0,0,1,5.35,349l9.56,50.6"/><text class="cls-2" transform="translate(64.95 457.33) rotate(12.87) scale(1.08 1)">C</text><text class="cls-2" transform="translate(104.48 466.28) rotate(9.1) scale(1.08 1)">h</text><text class="cls-2" transform="matrix(1.08, 0.06, -0.06, 1, 138.94, 471.93)">e</text><text class="cls-2" transform="translate(181.77 474.13) rotate(-5.12) scale(1.08 1)">c</text><text class="cls-2" transform="matrix(1.05, -0.27, 0.25, 0.97, 219.86, 470.27)">k</text><text class="cls-2" transform="translate(253.96 461.12) rotate(-24.47) scale(1.08 1)"> </text><text class="cls-2" transform="matrix(0.87, -0.64, 0.59, 0.8, 284.7, 446.39)">t</text><text class="cls-2" transform="matrix(0.65, -0.86, 0.8, 0.6, 310.86, 426.41)">h</text><text class="cls-2" transform="matrix(0.48, -0.97, 0.9, 0.45, 332.08, 395.6)">i</text><text class="cls-2" transform="translate(339.2 381.58) rotate(-68.88) scale(1.08 1)">s</text><text class="cls-2" transform="matrix(0.34, -1.03, 0.95, 0.32, 353.44, 344.3)"> </text><text class="cls-2" transform="translate(363.18 315.76) rotate(-75.66) scale(1.08 1)">o</text><text class="cls-2" transform="translate(373.13 276.72) rotate(-83.12) scale(1.08 1)">u</text><text class="cls-2" transform="translate(377.5 234.87) rotate(-92.09) scale(1.08 1)">t</text><text class="cls-2" transform="translate(376 207.26) rotate(-98.22) scale(1.08 1)">!</text></g></g></svg>