<svg xmlns="http://www.w3.org/2000/svg" viewBox="0 0 265.31 433.67"><defs><style>.cls-1{fill:#fff;}</style></defs><g id="Layer_2" data-name="Layer 2"><g id="Layer_1-2" data-name="Layer 1"><path class="cls-1" d="M130.06,343.77c-.11-1.08-.87-.55-1.05-.69C129.5,344.84,130.27,343.69,130.06,343.77Z" transform="translate(0 -0.28)"/><polygon class="cls-1" points="134.99 360.83 134.6 360.57 135.87 363.04 134.99 360.83"/><path class="cls-1" d="M137.83,377.62c1.13-1.8-1.26-5.94-1.27-9l.23-.54L135.43,367C136.23,370.52,137.78,375,137.83,377.62Z" transform="translate(0 -0.28)"/><path class="cls-1" d="M136.31,387c.45-.63.8,1.83-.19-2.08a3.9,3.9,0,0,1-.07.4C136.12,385.62,136.2,386.11,136.31,387Z" transform="translate(0 -0.28)"/><path class="cls-1" d="M136.05,385.27c-.34-1.74-.26,1.21,0,0Z" transform="translate(0 -0.28)"/><path class="cls-1" d="M137.75,393.24l-.88-2.2c-.24.53,0,2.58-.33,1.87C137.21,395.21,137.45,394.67,137.75,393.24Z" transform="translate(0 -0.28)"/><path class="cls-1" d="M139.15,395.24l-.41-1.15C138.64,394.32,138.65,394.64,139.15,395.24Z" transform="translate(0 -0.28)"/><path class="cls-1" d="M137.87,391.64l.87,2.45c.17-.37.62-.49-.36-1.13C138.84,393.09,138.35,392.66,137.87,391.64Z" transform="translate(0 -0.28)"/><path class="cls-1" d="M137.84,390.18c.08-1.34,0-3,.87-.81C137.76,385,136.88,385.83,137.84,390.18Z" transform="translate(0 -0.28)"/><path class="cls-1" d="M139.43,378.22l.11-1.79-.73-1.41C139.18,375.72,139,378.4,139.43,378.22Z" transform="translate(0 -0.28)"/><path class="cls-1" d="M139.49,407.64c.32.09.66-.91,1-1.15l-.64-1.63C139.82,405.77,139.91,407.45,139.49,407.64Z" transform="translate(0 -0.28)"/><path class="cls-1" d="M140.51,406.49l1,2.45C141.13,406.66,140.81,406.29,140.51,406.49Z" transform="translate(0 -0.28)"/><polygon class="cls-1" points="140.79 395.1 138.99 391.13 140.94 395.9 140.79 395.1"/><path class="cls-1" d="M141.12,417.31l-.94-1.31c.5.77,1,1.64,1.48,2.32C141.5,418.07,141.3,417.64,141.12,417.31Z" transform="translate(0 -0.28)"/><path class="cls-1" d="M141.59,419.28a3.21,3.21,0,0,0-.83-.38,5.08,5.08,0,0,1-.66-.33,5.23,5.23,0,0,1,1.28,1.23C141,419.3,141.12,419.36,141.59,419.28Z" transform="translate(0 -0.28)"/><path class="cls-1" d="M142.27,421.05a9.21,9.21,0,0,0-.89-1.25Z" transform="translate(0 -0.28)"/><path class="cls-1" d="M142.06,413.27a3,3,0,0,0-.51,2.14l.67-1.14Z" transform="translate(0 -0.28)"/><path class="cls-1" d="M142.24,414.23l0,0c.16,1.09.27,1.84.32,2.16Z" transform="translate(0 -0.28)"/><path class="cls-1" d="M142,413l0,.25C142.12,413.16,142.14,413.1,142,413Z" transform="translate(0 -0.28)"/><path class="cls-1" d="M141.17,402.14c.73,1.41,1.77,4.42,2,1.3C142.38,402.47,142.27,404.26,141.17,402.14Z" transform="translate(0 -0.28)"/><path class="cls-1" d="M142.86,411.6l-.28-2.72c-.21.09-.45.63-.81-.06Z" transform="translate(0 -0.28)"/><polygon class="cls-1" points="143.35 412.6 142.86 411.32 142.96 412.33 143.35 412.6"/><path class="cls-1" d="M143,420.72a5.13,5.13,0,0,1,.8,1.88,4.05,4.05,0,0,0,0-1.59C143.48,420.7,142.89,420.17,143,420.72Z" transform="translate(0 -0.28)"/><path class="cls-1" d="M142.94,418.89l.07.09C143.08,418.94,143.09,418.89,142.94,418.89Z" transform="translate(0 -0.28)"/><path class="cls-1" d="M139.84,421.74l.07.21,0-.15Z" transform="translate(0 -0.28)"/><path class="cls-1" d="M144,421a1.5,1.5,0,0,0-.52-1.23,6.89,6.89,0,0,1,.36,1.22C144,421.14,144,421.21,144,421Z" transform="translate(0 -0.28)"/><path class="cls-1" d="M142.31,421.89a13.9,13.9,0,0,0,1.12,1C142.87,422.35,142.12,421.56,142.31,421.89Z" transform="translate(0 -0.28)"/><path class="cls-1" d="M142.79,419.08l0-.06C142.57,419.1,142.66,419.1,142.79,419.08Z" transform="translate(0 -0.28)"/><path class="cls-1" d="M142.79,419.08a9.62,9.62,0,0,0,.65.71A3.65,3.65,0,0,0,143,419,.5.5,0,0,1,142.79,419.08Z" transform="translate(0 -0.28)"/><path class="cls-1" d="M135.18,425.57c.26-.31,1.2-.28,2.25,0a9.26,9.26,0,0,1,3.43,2c1.2.21,1.09-.75.59-2s-1.2-2.68-1.54-3.67c-.09.35,0,.76-1.45.55a11.07,11.07,0,0,0,1.49,1.58c.62.62,1.19,1.26.42,1.28a4.41,4.41,0,0,1-2.09-1.06,3.74,3.74,0,0,1-.35-.53c-.05-.09-.12-.19-.19-.29a5.23,5.23,0,0,0-.4-.38c.88,1.53-4.69-.69-4.67.93l3.05.92C135.67,425.18,134.49,425,135.18,425.57Z" transform="translate(0 -0.28)"/><path class="cls-1" d="M141.85,422.91l.35,0a6.19,6.19,0,0,1-1.65-1.92,1.27,1.27,0,0,0-.62.76c.63.36,1.3.67,2,1Z" transform="translate(0 -0.28)"/><path class="cls-1" d="M144,423.74a2.58,2.58,0,0,1,.4,1.36c.06.38.17.79,1.15,1.73a2.25,2.25,0,0,0,.92.24c.06,0,.15,0,.1-.13l-.24-.48a21.42,21.42,0,0,1-1-1.94c.38,1.57.16,1.13-.13.53a5.71,5.71,0,0,0-.52-.87.5.5,0,0,0-.23-.2.12.12,0,0,0-.1,0l0,0s-.11-.06-.16-.09,0-.18-.05-.31l-.13-.38-.18-.63a.71.71,0,0,1-.14.26l-.09.07-.05,0h0a.25.25,0,0,1-.08-.07l.1.11h0v0c.14.11.21.19.15.18s0,0,0,0a6,6,0,0,1,.33.51c-.77-.53-.35-.41-.33-.51l-.15-.21,0,0a7.89,7.89,0,0,1-1.33,0A6.09,6.09,0,0,0,144,423.74Z" transform="translate(0 -0.28)"/><path class="cls-1" d="M145.44,405.89c0,.17-.1.18-.16.2C145.44,406.41,145.53,406.52,145.44,405.89Z" transform="translate(0 -0.28)"/><path class="cls-1" d="M145.3,408.11a3.27,3.27,0,0,1-.7-1.85c.07-1.11.41-.07.68-.17-.36-.7-1.06-2.48-1.07-.09l.18.34c.07,2.14-.53,5-.71,4.66A7.11,7.11,0,0,0,145.3,408.11Z" transform="translate(0 -0.28)"/><path class="cls-1" d="M145.58,419.59l1,3.24a8.5,8.5,0,0,0,.54-1.26l-.48-.13C146.49,419.6,146,419.87,145.58,419.59Z" transform="translate(0 -0.28)"/><path class="cls-1" d="M139.73,421.21a6.11,6.11,0,0,0,.24-.89,2.33,2.33,0,0,1-1,1A4.88,4.88,0,0,0,139.73,421.21Z" transform="translate(0 -0.28)"/><polygon class="cls-1" points="136.14 419.3 136.68 418.68 135.15 418.47 136.14 419.3"/><path class="cls-1" d="M9.8,150.49l.19-1.34A10.92,10.92,0,0,0,9.8,150.49Z" transform="translate(0 -0.28)"/><path class="cls-1" d="M7.15,159.69l.32.32C7.37,159.53,7.26,159.31,7.15,159.69Z" transform="translate(0 -0.28)"/><path class="cls-1" d="M40,325c-.25-2-.15-4.33-.84-3.71l-.51.91A10.18,10.18,0,0,1,40,325Z" transform="translate(0 -0.28)"/><path class="cls-1" d="M6.53,236.73l-.2.57,1,1.17C7.07,237.94,6.8,237.35,6.53,236.73Z" transform="translate(0 -0.28)"/><path class="cls-1" d="M2.81,235.77l.28-2.55A14.11,14.11,0,0,0,2.81,235.77Z" transform="translate(0 -0.28)"/><path class="cls-1" d="M33.65,103.6l.31-1.79C32.41,103.73,33.44,103.17,33.65,103.6Z" transform="translate(0 -0.28)"/><path class="cls-1" d="M89.13,387.55a33.35,33.35,0,0,0-2.57-3C87.58,386.21,88.29,387.74,89.13,387.55Z" transform="translate(0 -0.28)"/><path class="cls-1" d="M17.57,156.65c.06-.78,0-1.15-.21-1.18C17.28,156.27,17.32,156.75,17.57,156.65Z" transform="translate(0 -0.28)"/><path class="cls-1" d="M83.26,381.34c.14.26.31.48.47.73a22.18,22.18,0,0,1,2.83,2.44A7.35,7.35,0,0,0,83.26,381.34Z" transform="translate(0 -0.28)"/><path class="cls-1" d="M195.87,13.34a3.49,3.49,0,0,1,.44,0C196.31,13.19,196.13,13.24,195.87,13.34Z" transform="translate(0 -0.28)"/><path class="cls-1" d="M250.14,7.85c-.5.16-1.34.35-2.12.53A9.76,9.76,0,0,0,250.14,7.85Z" transform="translate(0 -0.28)"/><path class="cls-1" d="M117,408.09c1,.62.21,0,0,0Z" transform="translate(0 -0.28)"/><path class="cls-1" d="M120,414.05a.66.66,0,0,0-.63.11A.83.83,0,0,1,120,414.05Z" transform="translate(0 -0.28)"/><path class="cls-1" d="M71.07,376.64l-.07-.08C71.12,376.93,71.1,376.87,71.07,376.64Z" transform="translate(0 -0.28)"/><path class="cls-1" d="M118.24,409.4c-.33-.31-.7-.68-1.13-1A8.79,8.79,0,0,0,118.24,409.4Z" transform="translate(0 -0.28)"/><path class="cls-1" d="M118.25,408.93l.84.6C119.29,409.49,119.23,409.34,118.25,408.93Z" transform="translate(0 -0.28)"/><path class="cls-1" d="M115.58,407.22a15.6,15.6,0,0,1,1.53,1.14c-.16-.18-.21-.28-.15-.27Z" transform="translate(0 -0.28)"/><path class="cls-1" d="M105,53.8l.27,0C106.13,52.86,105.68,53.16,105,53.8Z" transform="translate(0 -0.28)"/><path class="cls-1" d="M18.48,300.46c0,.05.06.07.08.12l0-.19Z" transform="translate(0 -0.28)"/><path class="cls-1" d="M16.31,296.56a5.53,5.53,0,0,1,2.22,3.83l1.81-2.27Z" transform="translate(0 -0.28)"/><path class="cls-1" d="M18,129,16,131.48c.47-4,2.2-6.35-.17-4.14,1.13.82-.2,3.62-1.36,6.49s-2.24,5.77-1,6.46c-.42.58-.86,1.15-1.27,1.74.22-.55.12-.7.35-1.24-2.62,3.36.77,3.49-1.23,8.23-.73,1.65-1.48,2.74-1.43,1.47-.19,1.34-.35,2.69-.5,4-.38,1.1-.75.7-.38-.4-.5,2-1,4-1.39,5.95L7.47,160a40.31,40.31,0,0,1,.43,4c-.73,1.41-.11-.82-.53-.52,0,1.15-.08,2.28-.1,3.42-1,1.19-1.06-1.68-.42-3.93-3.34,2.48,0,2.86-2.88,9.21l.27-3.2a7,7,0,0,0-1.84,3.21,35,35,0,0,1-1.51,4.51c.63-.79,3.57-6.73,3.63-3a8.89,8.89,0,0,0-.46,4.35c-1-.14-1,1.81-1.37,4.2l-1.24-.34c0,2.65.71,2.53,1.1,4.13-.46,2.87-1.51,3.36-2.42,4-.74,4.64,1.94-3,1.56,2.47-.78,3.82-.46,6.6.06,11.23-.5,2.69-.78-.5-1.16.46l1,2.43c0,.58-.35.39-.51.29.36,2,1.28.2,1.56,3.36.72.43.09,2-.33,4s-.86,4.41,0,6.34c-.34,1-.79-.43-1.28-.12.56,2.68.86,3.81,1.17,4.83s.65,1.91,1.5,4l-.57,3.8c.37-1.41.91-1.26,1.49-.4a25.29,25.29,0,0,1,2,3.91c.35-1,.67-1.87.8-2.44L8.55,239c-.14.6-.63.17-1.25-.55.14.31.28.61.4.84-.28,1.78-1.11,1-2-.18.19-.62.39-1.23.59-1.83-.91-1.11-1.89-2.15-2.61-1.82A5.79,5.79,0,0,1,4.25,237c-.25-.29-.46-.47-.57-.31s.22.66.64,1.42L3,239.43l.59.2-.08,3.26c0,1.09,0,2.17,0,3.26,1.07,2.18,2.28,4.17,3.43,6.48A39.54,39.54,0,0,1,10.47,261c-1.37-1.54-1.75,0-3,.15.92-2.22-1.7-5.43-2.09-9.22.16,2-.44,1.65-.76,1.19l2.5,6.41c-1,.06-.46,1.57-.52,3.4,1.63-1.73,2.49,4.6,3.73,7.11-.61.34-1.43-.13-2.07-3.44a4.44,4.44,0,0,0,1.44,4,7.83,7.83,0,0,1,1.19,1.6,4,4,0,0,1,.49,2.27c-.25-.78-.27-1.23-.69-1.45,1.11,1.68,1.94,6.28,1.07,5.39l-.23-.78c.32,1.32.75,3,1.28,4.72s1.25,3.54,1.93,5.19a34,34,0,0,0,2,4.22c.68,1.07,1.29,1.75,1.76,1.79a7.54,7.54,0,0,1-2.62-.15c3,2.37,5.81,4.71,8.79,6.92-1.68-.25-3.66,4.11-6.13.24a13.5,13.5,0,0,0,2.23,5.18c-.15-.9,1.09-2.84,1.69-1.79-.21,3.67.08,2.44.42,6.76-.24-1.34,2.42-.92,3.26,1-.45-.15-2,1.11-2.53.51L27.89,316c-.92-1-1.82.62-1.89,2,.08-.35.55.68,1.1,1.93a29.22,29.22,0,0,0,1.71,3.26l-.55-2.2a9.05,9.05,0,0,0,4,4.5,10.65,10.65,0,0,1,4.17,4.28c-.75-.38-3.36-.12-2.13,2.6,1.7.62,7.72,2.45,11.19,6.17l0,1.17,2.69,2.86A53.15,53.15,0,0,1,42,339.32c-1.21-.7-2.44-1.46-3.57-2.19A35.57,35.57,0,0,1,35.51,335c.66,2.16-.4.94,1.37,3.74.09,1.32-1.77-1-2.26-1.89.57,1.16,1.19,2.29,1.83,3.41l1.89,3.39c.95-1,4.28,4.27,5.1,3.37-2-2-3.76-4.19-5.66-6.29.48-.5,1.93,0,3.59,1.24a17.8,17.8,0,0,1,2.55,2.32,20.28,20.28,0,0,1,2.42,3.09c.33,1.44-2.57.49-2.88.83.79.33,3.65,3.77,3.66,4.37l-1.89-1.5A9.11,9.11,0,0,0,48,354.13a7.12,7.12,0,0,1,2.66,3.65c.68,1.06.87,4.06,1.64,3.76,0-2.59,3.55-5.74,5.26-5.37.1.19.74,1.73,1.47,3.36a27.71,27.71,0,0,1,1.65,4.19c.36,2.36-4.17-.59-3.88,1.42.34-.17,1.41.43,1.82.7.58,1.22-1.23.3.71,2.42.68-.25,1.55.9,2.07,1.56s.6.88-.34-1.25c2.09,1.89,1.73,2.42,3.93,4.86,0-1.38,4.15.24,6.32,2-.37.12-.27.88-.21,1.24,1.91,2.09,3.28,3.79,4.63,5.45a62.87,62.87,0,0,0,4.7,5c.12.57,1.69,2.64.51,2.31A9.62,9.62,0,0,1,83.68,391c.79,1.48.08.91-.73.3s-1.67-1.32-1.28.05c.69-.44,3.93,2,6,3.19.29-1.41-3.91-3.7-5.93-5,1.11-1.2,5.34.19,9.93,3.2,1.75,1.29,2,1.75,1.8,2s-.71.22-.34.36c6.21,5.37,7.17,2.16,11.86,7.11,1.52,2.46-1.17,1.79-1.15,2.77-3.1-1.81-4-3.76-5.89-5.27.67.75,1.31,1.53,2,2.24a10.51,10.51,0,0,1-4-2.75,11.4,11.4,0,0,0,2.23,2.39c1.13,1,2.65,2.1,4.24,3.32s3.27,2.52,4.9,3.71a55.67,55.67,0,0,1,4.38,3.44c1.14.33,3,1.11,2.43.23l-1.75-1c-1-1.75,3.78,1.11,1.9-.65l2,.75c.7.23,1.42.48,2.15.77a17.43,17.43,0,0,1,4.43,2.55l0,1.43c.11-.35-1.73-1.91-2.83-2.14,1.62.33,4.08,4.48,6.43,3.85-.63-.67-1.27-1.32-1.88-2,2.64.78,6.16,1.2,8.86,3.13-.75-1.79-.74-.25-2.11-2.62.93,2.52-7.34-4.11-5.4-.93-1.26-2.63-3.22-2.76-5.16-5.58-.13.4.54,1.24-1.71-.37a2.83,2.83,0,0,1-.71,0l-.14-.12.1.12c-.14,0-.15,0,0,0a3.31,3.31,0,0,1,.87,1.25c-1.7.13-5.34-2.4-6.85-2.83-1.27-1.09.83,0,.32-.86l-2.26-.66c.33-.87-2.76-3.66.74-1.93l-1.42-1-1.39-1.05a16.89,16.89,0,0,0-5.1-4.19c-1.21-1.09-3.84-1.8-2.31-1.43l-4.59-3,.1-.21c-2.09-1.7-4.36-3.3-6.65-5.06a33.06,33.06,0,0,1-3.32-2.88,22.39,22.39,0,0,1-2.79-3.65c-.74-.55-1.49-1.09-2.31-1.79-.41-.35-.84-.74-1.29-1.18s-.89-1-1.37-1.57l.15-1c-1.79-1.51-4.28-5.55-5.51-5.77-.06-1.65-1.82-3.83-3.88-6-1-1.08-2.1-2.23-3-3.3a28.8,28.8,0,0,1-2.38-2.92l-.89.51c-1.76-2.19-3.57-4.21-6-6.77l-.6.7a15.15,15.15,0,0,1-3.29-4.58,53.81,53.81,0,0,0-3.5-6c.47.08,1.08,1.13,1.39,2a13.83,13.83,0,0,0-1.9-4,32.82,32.82,0,0,0-2.73-3.52c-1-1.14-1.95-2.25-2.78-3.4a12.24,12.24,0,0,1-1.74-3.72A5.93,5.93,0,0,1,40.51,327a1,1,0,0,0,.2.25c-.06-.12-.16-.29-.26-.46-.15-.57-.28-1.17-.47-1.79a8.45,8.45,0,0,0,.33,1.54c-.52-.85-1.37-2.11-2.24-3.33l.56-1-.18-.29c-.36-1.46-.94-.83-1.23.2a10.05,10.05,0,0,0-1.42-1.47c.85-1.77-2.31-3.22-1.51-5.42-1.15-.55-3.73-6.48-5.62-6.51.18-.13.08-.57.44.15a12.52,12.52,0,0,0-2-4.39l.85-1.13L25,300.63a4.93,4.93,0,0,1,.11-2.33c.23-.34.63-.15,1.49.67-3.25-4.38-2-3.78-5-7.49l.82-.07c-.64-1.47-2.42-3.58-2.11-4.72.17-2-1.29-6.15-2.6-11.13-.7-2.47-1.47-5.11-2-7.75a57,57,0,0,1-1.15-7.52c-1.92,2.24.19-4.4-1.65-4.39.43-.64.49-2,1.25-.58-1.51-4.49-.34-7-2.38-10,.46-.61,1,.87,1.2.35-.17-.35-.7-1.4-.45-1.92s.56.61.92,1.3c-.43-2.34-1.06-3.57-1.76-4.25a3.65,3.65,0,0,0-2.37-.86c.48-2.52.24-3.7-1-5.35.42-.9.81-2.35,1.33.59-.24-1.67,0-10.26-1.34-10.36A6.2,6.2,0,0,0,8.19,222c0-3.77.09-4.11-.12-7.81l-.18,1a2.66,2.66,0,0,1-.82-2.46,21.16,21.16,0,0,0,.32-3.62l.16.09c.63-3.42.51-4.16.41-4.89s-.17-1.46.7-4.8l-1,.31c-1-.37-.6-1.87,0-3.74.3-.94.61-2,.89-3a9.32,9.32,0,0,0,.38-3.1l-.71,1.36c-.44-2.23,3.45-5.64,4-7.69.25-.43.16.76.23,1.42,2-5.32-1.15-.88-.78-5,.79-.65,1.54,1.24,2.11-1.49.4-.64.13-2.72.13-5.1s.18-5,1.25-6.76c-.7.7-1.4,1.41-1.35-.57.47-3,3.82-7.29,3-10.28.24-.32.41-.42.54-.4.21-2.29,1.53-7.22,1.18-8.8,1.92-.44,2.71-3.85,3.59-7s1.71-6.07,3.08-5.39c.47-1.05.94-2.1,1.45-3.13s1-2.07,1.54-3.09l.19.31c2.28-3.76,2.52-5.42,2.75-7.13.73-.75.56,0,.65.19,1-1.27,1.77-2.26,2.38-3.12a20.74,20.74,0,0,0,1.57-2.22,52.31,52.31,0,0,0,2.49-5.5l1.13.17A6.15,6.15,0,0,1,40.72,109c.37-.37.78-.8,1.26-1.24l1.57-1.4c1.1-1,2.25-2.14,3.41-3.31a24.62,24.62,0,0,0,3.19-3.76c0,.12.08.35-.17.81a20.38,20.38,0,0,1,4-4c1.52-1.28,3.23-2.37,4.74-3.44.77-.54,1.49-1.07,2.14-1.59a15.3,15.3,0,0,0,1.77-1.51,4.39,4.39,0,0,0,1.55-3.17c1-1.24,2.16-2.4,3.24-3.6-5.12,3.5-.21-1.81-2.61-.75,1.84-1.65,5.71-2.94,3.42-1l-.48.14c.19,2.11,6.65-4,7.25-2.8,10-7,20.78-12.06,30.9-17.32l-1.85-.67,3.57-1.8c1.09-.18,1.78.36-.77,1.64,1.7,0,3.91-2.84,3.84-3.15,5.26-2-1.16,2.51.38,1.76l2-1.15-.54.09c1.41-1.39,1.27-2,4.36-3.51,2.07-.72,1.4.3,2.18,0,0,.1.32,0,1.2-.53l4.58-2.08-2.32-.16c1.77-1.49,4.3-2,1.64-2.18,3.9.25,17.37-7.26,19.57-7.49,2.52-2.06,5.39-3.22,9-4.61-1,.15-2-.83,1.12-2,0,1.48,1.45,1.14,3.38.58s4.27-1.37,5.86-1c-1.34-.15.81-1.09,2.78-2s3.78-1.81,1.71-2c2.65-.77.51.88,2.69.73a43.41,43.41,0,0,1,10-3.77c1.84-.52,3.72-1,5.62-1.6s3.82-1.14,5.71-1.87c0-.37-1.45-.45,0-1.5,1.54.11,3.07.19,4.61.32,1.46-.64.78-2.37,3.94-2.09-.49-.16-1.21-.4-.22-.83,2-.39,3.9-.87,5.84-1.37s3.88-1,5.82-1.6l11.65-3.5c3.9-1.15,7.86-2.16,11.84-3a74.76,74.76,0,0,1,12.14-1.41c-2.28-.2-.88-.57.75-.95-1.1.07-.17-.85-.48-1.27L254.41,7c.93-1.56,7.07-1.5,7.52-2.89l-2.06.64c2.51-2-4.56-2.47-4.55-4.43-1.41,1.13-3.59,1-6,1s-5.13.08-7.42,1.9C240.65,3,242.7,2.3,242,2c-1.11,1.11-2.64,1.64-5.64,2l.28-.28c-4.08,1-7,1.7-10.11,2.23S220.18,7,215.54,8l.93.73A12.83,12.83,0,0,1,213,9c-1.85,2,5.53-1.45,3.91.65a7.49,7.49,0,0,0-3.51.08c-1.48.3-3.17.79-4.84,1.26-3.35.94-6.59,1.83-7.78,1.08-3,.93,1.2.77-1.78,1.7l-1-.31-.53,1c-2,.5-3.2.11-3.43-.35a12.57,12.57,0,0,0,1.8-.76c-2.76.11-7.06,2.56-8,2.63l3-.61c-7.94,3.19-18,6-25.31,10.05l.74.2c-5.58,3-4.87,1.38-11.16,4.27l.2-.2a17.18,17.18,0,0,1-4.5,2.53c1.41-1.16-3.42.33-1.53-1.09-5.95,3.47-2.87,1.91-6.33,5.25l-1.25-.27c-1.13,1.24-1.11,1.61-4.18,3.17,2.33-1.72-2.47-.14.09-2.19a20.38,20.38,0,0,0-7.79,3.44c-1.86,1.21-3.32,2.12-5.33,1.76-2.13,3.27,6.16-1.62,4.67-.43,1.69,0-1.85,2.53-4,3.32-2.09,1-4.67-.66-9.9,1.93.53-.26.5-.41,1-.65-2.19.49-3.5,2.55-6.27,3-.77,1.78-3.13,1.51-2.79,3.11l4.59-2.74c-2.51,1.74-4.19,4.64-9,6.19A10.52,10.52,0,0,1,105,53.8c-1.51.27-2.34,1.58-3.9,1.86-.36-1.58,5.56-3.36,7.92-5.87-1.71.09-4.94,3.83-4.28,1.55-1.06,3-5.23,2.43-7.9,5.82l-.23-1a12.2,12.2,0,0,1-2.42,2l1.23-2.09c-2.3,2.46-5.85,2.25-8.25,4.3,5.59-3.26,1.84.26,4.55-.5-3.14,2.51-4.41,2.58-5.87,2.61s-3.1,0-6.77,2.6c1-.76,4.16-1.94,2.78-.56A20.26,20.26,0,0,1,77,66.32c-4.88,3.42,1.28.3-.52,2.18-2.31.16-2.17,2-4.11,3.75l-.56-.79c-5.89,3.37-.32,2.67-5.69,5.57.42-.88.86-1.72,1.3-2.58-.79.71-1.6,1.4-2.37,2.14L65,75.31c-2.28,2.77-3.3,3.18-6.15,5.07,1,0,.74,1.65-1.56,3.55-1.94.86.28-1.47-2.88,1.39A3.3,3.3,0,0,1,57,82.49c-.06-.36.35-1.07.31-1.43a12.26,12.26,0,0,0-3.17,2.15c-1,.9-1.81,1.81-2.39,2.32a7.68,7.68,0,0,1,1.41-.93c-1.26,1.72-2.56,3.35-3.75,5.11-1,.4-.6-.34-.23-1.08-.84.94-1.18,1.86-2.46,3.19-.19-.9-.84-1.4.83-3.49-1.24,1.6-2.52,3.13-3.71,4.75-.51,0-2.8,1.54-2.47.78a17.61,17.61,0,0,0-3.66,4.63,28.12,28.12,0,0,1-4.06,5.33,4,4,0,0,1-.7,1.52c-.68.78-1.39,1.51-2.09,2.23s-1.34,1.5-2,2.29A28.93,28.93,0,0,0,27,112.43a16.09,16.09,0,0,0-1.53,3.17l-2.71,1.6c-.92,1.72,0,1.15.72.87s1.27-.3-.13,2.58c-1.89,4.11-1.88.86-3,2.06-.5,2.34-1,6.41-3.76,9.68A26.92,26.92,0,0,1,18,129ZM4.55,173.65c-.08-.93-.31-2.81.37-3.35C5.81,171.53,5.11,172.19,4.55,173.65Zm.93,70a3.91,3.91,0,0,1-.15-2.84A10.67,10.67,0,0,1,5.48,243.64ZM105.9,401.34h-.1C104.48,399.88,104.94,400.4,105.9,401.34Zm3,2.73c.4.13.45,0,.39-.21a4.2,4.2,0,0,1-1.88-1.15C107.47,403.08,107.79,403.53,108.88,404.07Zm10.5-350.34-.82.12C120,52.81,119.7,53.27,119.38,53.73Z" transform="translate(0 -0.28)"/><path class="cls-1" d="M3.24,235.91a.88.88,0,0,1,.48-.43C3.52,235.15,3.33,235.16,3.24,235.91Z" transform="translate(0 -0.28)"/><path class="cls-1" d="M33.59,103.93l.1-.11a.35.35,0,0,0,0-.22Z" transform="translate(0 -0.28)"/><path class="cls-1" d="M57.42,366.73a4.84,4.84,0,0,1-.65-1.59C56.56,365.25,56.65,365.67,57.42,366.73Z" transform="translate(0 -0.28)"/><path class="cls-1" d="M127.59,414.06c-.79-.33-1.57-.68-2.33-1.06a7.56,7.56,0,0,1,1.82,1.43C127.15,414.21,126.88,413.69,127.59,414.06Z" transform="translate(0 -0.28)"/><path class="cls-1" d="M145,429.44c.28,0,.75.31,1,.29l-.43-.69C144.26,428.49,143.38,428.52,145,429.44Z" transform="translate(0 -0.28)"/><path class="cls-1" d="M128.1,418c-.22.81,1.34,1.35,3,2.09a2.64,2.64,0,0,1-.29-.15C131.83,419.18,130,418.59,128.1,418Z" transform="translate(0 -0.28)"/><path class="cls-1" d="M131.49,420.26a14,14,0,0,1,1.48.79C133.36,420.75,132.42,420.64,131.49,420.26Z" transform="translate(0 -0.28)"/><path class="cls-1" d="M113.38,406.48c.59.65,1-.56,1.24,0C116,406.14,109.22,404.33,113.38,406.48Z" transform="translate(0 -0.28)"/><polygon class="cls-1" points="128.1 420.77 128.01 419.57 126.72 419.79 128.1 420.77"/><path class="cls-1" d="M116,413.09l2.35,1.76c0-.16.42-.06.85.12C117.69,414,116.11,412.81,116,413.09Z" transform="translate(0 -0.28)"/><path class="cls-1" d="M119.21,415a8.71,8.71,0,0,0,2.09,1.08A19.8,19.8,0,0,0,119.21,415Z" transform="translate(0 -0.28)"/><path class="cls-1" d="M124.44,419.38l-.66-.6c-.59-.35-1.16-.75-1.74-1.12C122.83,418.25,123.62,418.84,124.44,419.38Z" transform="translate(0 -0.28)"/><path class="cls-1" d="M91,394.25l-2.58-1.89c-.47,0,0,.77,1,1.46C90.12,394.14,91.1,394.83,91,394.25Z" transform="translate(0 -0.28)"/><path class="cls-1" d="M96.7,402.51a3.05,3.05,0,0,1-.63-1.49l-.85.91Z" transform="translate(0 -0.28)"/><path class="cls-1" d="M89.23,396.79c-.46,0-4.16-2.36-1,.3C88.66,397.06,91.3,398.94,89.23,396.79Z" transform="translate(0 -0.28)"/><polygon class="cls-1" points="56.95 360.45 57.47 361.07 59 359.73 56.95 360.45"/><path class="cls-1" d="M29.48,327.39c1.38,3.65,1.5.23,2.69,3.56.87.55-1-2.72-.16-2.11C30.48,327,30.17,325.8,29.48,327.39Z" transform="translate(0 -0.28)"/><path class="cls-1" d="M32,328.84c.26.28.54.58.86.88A5.85,5.85,0,0,0,32,328.84Z" transform="translate(0 -0.28)"/><polygon class="cls-1" points="259.04 6.82 261.49 6.76 259.83 6.39 259.04 6.82"/><path class="cls-1" d="M263.3,4.71l.81,1.16,1.2-1.44A3.88,3.88,0,0,1,263.3,4.71Z" transform="translate(0 -0.28)"/><path class="cls-1" d="M.85,180.08l.28.24c.39-.34.51-.91.76-2.07Z" transform="translate(0 -0.28)"/><polygon class="cls-1" points="9.57 146.8 9.35 147.35 10.82 146.68 9.57 146.8"/><path class="cls-1" d="M20,119.9c-.66,1-1.1,2.39-1.72,3.42C19.35,120.9,21.45,120.36,20,119.9Z" transform="translate(0 -0.28)"/><path class="cls-1" d="M145.75,430c.13,0,.1-.38.12-.46C145.64,429.66,145.75,430.13,145.75,430Z" transform="translate(0 -0.28)"/><polygon class="cls-1" points="143.41 430.61 143.46 430.44 143.1 430.84 143.41 430.61"/><path class="cls-1" d="M141.25,430.79c.18.72.79-.08,1.16.19l.06.16.2-.57C142.2,430.65,141.57,431,141.25,430.79Z" transform="translate(0 -0.28)"/><path class="cls-1" d="M140.17,429.2c.06.28-.26.23.26.1l0-.07A.73.73,0,0,1,140.17,429.2Z" transform="translate(0 -0.28)"/><path class="cls-1" d="M140.39,429.23c.23,0-.14-.24,0,0Z" transform="translate(0 -0.28)"/><path class="cls-1" d="M139.33,429.34l.31-.23c0-.17-.32-.22-.21-.33C139.12,428.9,139.17,429.07,139.33,429.34Z" transform="translate(0 -0.28)"/><path class="cls-1" d="M139,429.85l.16-.1C139.16,429.68,139.12,429.66,139,429.85Z" transform="translate(0 -0.28)"/><path class="cls-1" d="M139.53,429.55l-.34.2c0,.12,0,.35.15-.07C139.31,429.89,139.38,429.69,139.53,429.55Z" transform="translate(0 -0.28)"/><path class="cls-1" d="M139.71,429.66c.16.17.37.27.06.51C140.35,430.09,140.28,429.59,139.71,429.66Z" transform="translate(0 -0.28)"/><path class="cls-1" d="M141.11,431.52l.22.22.2-.23C141.43,431.63,141.11,431.3,141.11,431.52Z" transform="translate(0 -0.28)"/><path class="cls-1" d="M137.49,428.89a4,4,0,0,0,.1.61l.23-.17C137.71,429.22,137.5,429.12,137.49,428.89Z" transform="translate(0 -0.28)"/><path class="cls-1" d="M137.59,429.5l-.34.24C137.54,429.78,137.6,429.66,137.59,429.5Z" transform="translate(0 -0.28)"/><polygon class="cls-1" points="138.94 430.36 139.51 429.84 138.84 430.36 138.94 430.36"/><polygon class="cls-1" points="136.23 428.54 136.44 428.19 136.08 428.71 136.23 428.54"/><path class="cls-1" d="M135.4,428.84c.15-.28-.17-.5,0-.67-.23,0-.43.28-.62.5C135,428.55,135.15,428.59,135.4,428.84Z" transform="translate(0 -0.28)"/><path class="cls-1" d="M134.46,429a1.79,1.79,0,0,0,.3-.31A.89.89,0,0,0,134.46,429Z" transform="translate(0 -0.28)"/><path class="cls-1" d="M136.69,429.64a.65.65,0,0,0-.24-.44l.11.43Z" transform="translate(0 -0.28)"/><path class="cls-1" d="M136.56,429.64h0l-.28,0Z" transform="translate(0 -0.28)"/><path class="cls-1" d="M136.72,429.64h0S136.71,429.7,136.72,429.64Z" transform="translate(0 -0.28)"/><path class="cls-1" d="M138.09,430.22c-.2.23-.62.46-.24.84C138,430.78,137.79,430.56,138.09,430.22Z" transform="translate(0 -0.28)"/><path class="cls-1" d="M136.86,430.19l.34.11c0-.11,0-.28.05-.4Z" transform="translate(0 -0.28)"/><polygon class="cls-1" points="136.68 430.03 136.86 429.91 136.73 429.86 136.68 430.03"/><path class="cls-1" d="M135,429.41a.69.69,0,0,1-.52.21,1.66,1.66,0,0,0,.6.15C135.15,429.64,135.25,429.4,135,429.41Z" transform="translate(0 -0.28)"/><path class="cls-1" d="M135.78,429.56l0,0S135.78,429.63,135.78,429.56Z" transform="translate(0 -0.28)"/><path class="cls-1" d="M132.68,429.53l0,.07v-.07Z" transform="translate(0 -0.28)"/><path class="cls-1" d="M135.15,429.85c.15.09.24,0,.33-.14a1,1,0,0,1-.36.06C135.11,429.83,135.1,429.87,135.15,429.85Z" transform="translate(0 -0.28)"/><path class="cls-1" d="M133.93,429.16a1.88,1.88,0,0,0,.25.24C134.11,429.27,134,429.05,133.93,429.16Z" transform="translate(0 -0.28)"/><path class="cls-1" d="M135.7,429.46l0,0C135.67,429.35,135.68,429.4,135.7,429.46Z" transform="translate(0 -0.28)"/><path class="cls-1" d="M135.7,429.46a1.36,1.36,0,0,0-.22.25.71.71,0,0,0,.26-.13A.42.42,0,0,1,135.7,429.46Z" transform="translate(0 -0.28)"/><path class="cls-1" d="M132,432.24c0-.4.46-.74.78-.3.35-.28.2-1.59-.06-2.34,0,.18,0,.34-.39.55.11.22.75.55.44.89-.47.18-.37-.16-.58-.38.16.5-.62.69-.56,1.42l.42-.24C132,432,131.88,432.13,132,432.24Z" transform="translate(0 -0.28)"/><path class="cls-1" d="M133.36,429.68l.15,0c-.16-.08-.27-.25-.47-.57a.71.71,0,0,0-.32.46l.7.09Z" transform="translate(0 -0.28)"/><path class="cls-1" d="M134.15,429.66c-.13.43-.48.6-.3,1.07.42,0,.31-.34.57-.52-.68.08.21-.23-.27-.5a1.17,1.17,0,0,1,.37-.09,1.79,1.79,0,0,1-.34-.22l0,0h0c0,.05,0,.09,0,.05h0a.75.75,0,0,1,0,.16c-.19-.1,0-.11,0-.16v-.06h0l-.69.21A1.26,1.26,0,0,0,134.15,429.66Z" transform="translate(0 -0.28)"/><path class="cls-1" d="M137.45,432a.16.16,0,0,1,0-.1C137.38,431.92,137.37,432,137.45,432Z" transform="translate(0 -0.28)"/><path class="cls-1" d="M137.18,431.7c0-.06.1-.23.26-.17s0,.2,0,.34c.1-.11.35-.29.06-.51l-.05.05c-.27-.16-.59-.71-.54-.77A4.06,4.06,0,0,0,137.18,431.7Z" transform="translate(0 -0.28)"/><path class="cls-1" d="M135.64,430.79l-.57.19.27.38v-.22C135.65,431.24,135.59,431,135.64,430.79Z" transform="translate(0 -0.28)"/><polygon class="cls-1" points="132.63 429.03 132.72 428.58 132.37 429.2 132.63 429.03"/><polygon class="cls-1" points="131.89 429.05 131.94 428.65 131.74 428.88 131.89 429.05"/><path class="cls-1" d="M90.26,431.53l-.17.1A.63.63,0,0,0,90.26,431.53Z" transform="translate(0 -0.28)"/><path class="cls-1" d="M91.46,431.65l0-.19C91.44,431.56,91.41,431.64,91.46,431.65Z" transform="translate(0 -0.28)"/><path class="cls-1" d="M113.93,428.37c-.21-.39-.45-1-.44-.53l0,.44A.34.34,0,0,1,113.93,428.37Z" transform="translate(0 -0.28)"/><path class="cls-1" d="M101.46,430.11l.06.14.19-.4Z" transform="translate(0 -0.28)"/><path class="cls-1" d="M101.16,431.89l-.3-.3A1.06,1.06,0,0,0,101.16,431.89Z" transform="translate(0 -0.28)"/><path class="cls-1" d="M83.67,431.43l-.23.42C83.74,431.88,83.63,431.64,83.67,431.43Z" transform="translate(0 -0.28)"/><path class="cls-1" d="M124.39,429.1a1.06,1.06,0,0,0-.5-.29C124.13,429.07,124.31,429.46,124.39,429.1Z" transform="translate(0 -0.28)"/><path class="cls-1" d="M91.11,427a.32.32,0,0,0-.17.25C91.05,427.16,91.12,427.09,91.11,427Z" transform="translate(0 -0.28)"/><path class="cls-1" d="M123.29,428.78l.1.11a.79.79,0,0,1,.5-.08C123.72,428.61,123.51,428.49,123.29,428.78Z" transform="translate(0 -0.28)"/><path class="cls-1" d="M60,428.77s0,0,0-.06S59.94,428.78,60,428.77Z" transform="translate(0 -0.28)"/><path class="cls-1" d="M53.56,423.66a1.39,1.39,0,0,1,.29,0A.39.39,0,0,0,53.56,423.66Z" transform="translate(0 -0.28)"/><path class="cls-1" d="M129,429c.16,0,0,0,0,0Z" transform="translate(0 -0.28)"/><path class="cls-1" d="M129.63,430.74a.31.31,0,0,0-.07.21A.43.43,0,0,1,129.63,430.74Z" transform="translate(0 -0.28)"/><path class="cls-1" d="M121.59,431.39h0C121.62,431.47,121.61,431.46,121.59,431.39Z" transform="translate(0 -0.28)"/><path class="cls-1" d="M129.18,429.2a.67.67,0,0,0-.19-.14A.7.7,0,0,0,129.18,429.2Z" transform="translate(0 -0.28)"/><path class="cls-1" d="M129.16,429l.14.05C129.32,429,129.3,428.93,129.16,429Z" transform="translate(0 -0.28)"/><path class="cls-1" d="M128.74,429a.53.53,0,0,1,.25.05s0-.05,0-.07Z" transform="translate(0 -0.28)"/><path class="cls-1" d="M72.79,428.9l0,0C72.59,429,72.66,429,72.79,428.9Z" transform="translate(0 -0.28)"/><path class="cls-1" d="M109.6,432.6l0,0h0Z" transform="translate(0 -0.28)"/><path class="cls-1" d="M109,432.89c.28-.52.41-.45.58-.32l-.1-1.26Z" transform="translate(0 -0.28)"/><path class="cls-1" d="M87.38,431.41l.36.42c-.53.61-.85.36-.53.93.17-1.35,1.53,0,1.7-1.36l.24.31c-.08,0-.09.06-.17,0,.45.69.46-.95,1.09-.7.22.12.36.33.19.48l.53-.3c.14,0,.09.27-.05.24l.77-.05v0a4.43,4.43,0,0,1,.54-.64c.17.21-.11.14-.08.31l.45-.29a.46.46,0,0,1-.52.6c.29,1.38.38-.31,1.17.54l-.41.14c.19.79.53.54.95,1.05-.09-.26-.82-1.27-.33-1.58.12.12.29.18.56-.07,0,.48.22.38.52.37l-.07.64c.35-.16.34-.49.56-.76.36.09.4.59.45,1,.58.14-.34-.83.36-.89.47.28.83.05,1.45-.29.32.25-.09.38,0,.58l.34-.49c.07,0,0,.17,0,.25.27-.18.07-.63.48-.78.16-.69.74,1.09,1.3.33.11.19-.09.39-.07.64a4,4,0,0,0,1.22-1l.45.45c-.32-.51.17-1,.6-1.48-.11-.24-.2-.45-.26-.55l.64-.3c.07.11,0,.33-.13.59l.13-.15c.2.26.06.62-.13,1-.06-.13-.13-.27-.19-.41a3,3,0,0,0-.36,1.17.45.45,0,0,1,.22-.16.41.41,0,0,0-.06.26c0,.07.09-.06.2-.22l.09.72.06-.28.78.51c.64-.68,1.22-1.69,2.17-1.92-.27.51-.11.85-.17,1.47-.2-.68-.74.22-1.21.05.25.09.17.38.1.48l.9-.53c0,.5.16.39.37.61-.1-1,.68-.62,1-.9,0,.34-.11.67-.53.56.42.79.69-1.13,1.11-.46-.11,0-.16-.05-.21.11.26-.28.84,0,.68.28h-.1c.68.17,2.1.15,2.26-.69,0,.11-.16,1-.21,1.19l1.42-2.77c-.16.72.14,2.48-.46,2.85a.53.53,0,0,0,.72,0c-.11-.11-.21-1.07,0-1.13.36.84.26.45.73,1.18-.16-.17.11-1.3.37-1.25a8,8,0,0,1-.16,1.25l.74-1.08c-.18.19-.09.95,0,1.27,0-.22.57.06.76,0l-.27-.28c.74.22.84-1.53,1.58-1.42-.11.22-.31,1.41.05,1.57.21-.56.94-2.71,1.62-3.11l.11.33.52-.34a20.68,20.68,0,0,1-1.88,3.29c.27.28.06.39.48.39.13.31-.26.45-.38.46l1,.26c0-.67.79-.63.78-1.19l-1.1.63c0-.67.73-1.86,1.41-1.7.16.27-.2,1.18-.2,1.41.1-.23.68-.4.74-.24l-.32.34c.37.28.68-.85,1.11-.18.15.05.42.89.47.5a11.18,11.18,0,0,1,.08-3.72,5.4,5.4,0,0,1,1,1.17c.22.61-.48,1.41-.29,1.93a1,1,0,0,1,.24-.46c.16.16-.1.56.27.5.1-.68.74.1.21-.57.36-.17.37.16.79.16a2.19,2.19,0,0,1,.82-1.65,1.31,1.31,0,0,0,.07.51c.73.1,1.1.43,1.78.47,0,.17.37.39.22.68.1-.12.2-.35.41-.35.38.61-.47.07-.2.79,0-.39.57-.52.89-.75-.06-.61-.69-.15-1,.08a2.54,2.54,0,0,1,1.34-2.05c.58-.18.22.56.32.44,1.06.21,1-1.42,1.83-.76.32.55,0,1.07,0,1.46-.47.18-.69-.38-1-.38l.37.28c-.16.17-.47.29-.63.12.27.5,1.79.19,2.58.68.16-.17.42-.35.31-.57l-.26.06c-.22-.44.51-.57.2-.79.36-.29.77-.75,1.25-.48l.06.62c0-.18-.3-.38-.45-.2.22-.26.71.86,1,.07l-.32-.44c.37-.29.83-.92,1.25-.7-.17-.62-.1.06-.38-.66.23.89-1.1-.09-.72.85-.27-.83-.53-.37-.9-1.09,0,.2.12.39-.23.27,0,.06-.07.13-.09.18l0,0,0,0s0,0,0,0a.77.77,0,0,1,.17.32c-.21.46-.78.41-1,.64-.21-.1.1-.22,0-.45l-.31.35c0-.45-.54-.78,0-1l-.45-.05a.7.7,0,0,0-.86-.21c-.21-.11-.57.47-.37.13l-.73.24v-.11c-.7-.1-1.49.66-2.26-.19a1,1,0,0,1-.88.07l-.06-.39c-.31.12-.89-.44-1,0-.27-1.07-1.47-.32-2-.53l0,.5a2.52,2.52,0,0,0-1.21.25v.45c-.42.34-1-.38-1.63-.37,0-.17.21-.12.31,0-.68-1.05-1.62.64-2.25-.14a.26.26,0,0,1-.41,0l0,0h-.07a2.62,2.62,0,0,0-.22-.25,1.15,1.15,0,0,0,.19.25,1.3,1.3,0,0,0-.54.14l0-.48h0c-.18-.19-.17.22-.09.58a1.48,1.48,0,0,0-.28.28c-.1-.79-.52.23-.68-.61-.16.39-1,.24-1.15,1.08,0-.11-.06-.17,0-.17-.21-.11-.42-.22-.63,0l0-.62-.53.79c-.26-.39-.36-.61,0-1.06-.73.67-.57.23-1.2.91l.05-.4c-.21,0-.58.51-.68.18-.42-.79-2.31-.27-3.46-1.05.15,1.18-.52-.56-.63.34,0-.28-.21-.45,0-.67-.64.22-.89-.5-1.37.22,0-.28.16-.39.11-.56,0,.06-.21.23-.26.06s.1-.23.21-.34c-.63,0-.75.85-.86,1.64-.29-.4-.45-.36-.71.14-.1-.26-.26-.55.14-.61-.22-.06-1.31-.48-1.38.15-.06-.16-.3-.07-.37,0a3.82,3.82,0,0,0-1-.11l.13.12c-.25.75-.42.14-.81.2l0-.08c-.85-.62-.41.24-1.24-.46v.48c-.16,1-.73-.67-1.27-.32l.17.29c-.31.33-.67-1.46-.94-1.61,0-.09.11-.13.2-.19-.69-.67-.15.62-.7.72-.08-.35.19-.85-.17-.94-.16-.29-1.15,1-1.6.32.09.27.18.54-.09.72s-1-1.07-1.38-.28a.38.38,0,0,1-.06-.21c-.31.19-1,.27-1.2.7-.14-1.67-1.91.65-1.78-.87H87l0-.16c-.58-.15-.81.2-1,.55-.12-.12,0-.25,0-.33-.82-.38-.91-.33-1.69.37l0-.5c-.22.27-1.16-.88-2-.38a.36.36,0,0,1,.11-.21c-1,.5-2.12-1.57-2.63.19l-.66.39c.79.21-.19.77.11,1.1-.32.07-.76-.62-.37-.68l.06.1c.22-.93-1-.43-.89-1.06-1.58-.1-3.07-.76-4.54-.95l.1.75-.51-.09c-.12-.19-.13-.59.23-.52-.15-.44-.64.28-.67.44-.69-.37.36-.82.14-.86l-.3,0,.06.09c-.27.28-.33.59-.76.51-.27-.17-.1-.46-.21-.5s0-.08-.17,0l-.64-.12.2.6c-.31.25-.6-.09-.37.59-.34-1.05-2.38-.6-2.62-.94a1.36,1.36,0,0,1-1.33.23c.11.13.12.78-.3.66.29-1.32-.72-.66-1-1.65.25.67-1.22,0-.83,1-.34-.15,0-.5-.21-.85-.89.44-1.82-.53-2.88-.46,0,.17.11.46-.14.69l-.46-.93c-.21.06-.29,1-.61.34,0,.16.1.39-.05.43-1.95-1.07-4.25.24-6.14-1.59.24.37.05.38-.16.37.13.1-.05.43-.05.67l-.8-.75c-.23.64-.93-.06-1.09.56l.28-.08c-.45.7.33,1.7.17,2.65.5-.8.94,1.37,1.75.23.12.22-.16.3-.11.53.22-.39.43-.45.79-.23l0,.1c1.08,0,1.5.47,2.67.87l0-.48c.25.09.29.25.4.38.37-.69-.73-.12-.37-.88.24,1,1.82.21,1.94,1.32.4.05-.06-.55.34-.51l.07.31.14-.37c.26.09.35.47.33.73-.06,0-.18.05-.25.06.3.38,1,0,1.07.11l-.37-.22c1.12-.16,2.41.37,3.52-.13l0-.23c.84-.33.61.31,1.52.21l0,.05a.74.74,0,0,1,.68-.24c-.25.24.37.55,0,.81.91-.36.46-.31,1.12-1.07l.1.38c.23-.32.26-.49.71-.54-.39.28.23.59-.22,1,.84.9,1.45-.68,1.76.54.52-1-.74-.64-.48-.84-.17-.35.42-.73.7-.6s.37,1.36,1.12,1.41c-.07,0-.09.07-.16.05.25.29.58-.3.88.16.25-.6.44.08.57-.7l-.7.11c.41-.17.86-1.05,1.45-.54a1.35,1.35,0,0,1-.42.44c.17.26.38-.11.55.14-.13.79-.85.09-1.32.65.17.36.84-.49.55.34.4-1,.72.21,1.3-.57l-.08.47c.09-.07.27-.27.42-.25l-.32.59c.45-.48.74.53,1.16.28-.82-.06-.13-.58-.45-1,1.07-.54.47,1.29,1.62,1.17-.16.05-.55-.34-.29-.53a1.3,1.3,0,0,1,.58.58c.76,0-.07-.5.28-.76.2.6.39-.2.73-.35l0,.48c.83.39.32-1,1-.54l-.38.64.41-.14-.13.54c.47-.36.6-.25,1-.05-.07-.35.14-.87.52-.85.23.31-.19.44.35.42-.14.29-.31.66-.5.19,0,.16-.15.3-.19.45.25.35.69.14.89.15a.31.31,0,0,1-.2-.13l.83-.6c.11.19,0,.33-.11.46.16,0,.29-.25.53-.27-.1.39-.12.79-.46.95l.77-.37c0,.17.34.5.23.63.4.27,1.08-.67,1.6-.31a.31.31,0,0,1,.21-.19c.51.13.92.65,1.57.17l.29.73c.49-.12-.39-.92.42-1.12.58-.17.16.62.34.83.31-.33.85-1,1.32-.4C87.67,431.49,87.54,431.38,87.38,431.41Zm5.88.17c-.12.1-.37.39-.43.1C93,431.14,93.08,431.41,93.26,431.58Zm9-.48c-.09.15-.22.07-.35-.13A.34.34,0,0,1,102.25,431.1Zm25-1.8v0C127,429.12,127.07,429.2,127.24,429.3Zm.51.23a.19.19,0,0,0,0-.2c0,.12-.16.13-.29.08C127.53,429.54,127.59,429.63,127.75,429.53Zm-56.3-4,.09.14C71.3,425.76,71.38,425.64,71.45,425.51Z" transform="translate(0 -0.28)"/><path class="cls-1" d="M101.19,431.69a2.48,2.48,0,0,1,0-.27A.22.22,0,0,0,101.19,431.69Z" transform="translate(0 -0.28)"/><path class="cls-1" d="M83.71,431.35h0s0,0,0,.08Z" transform="translate(0 -0.28)"/><path class="cls-1" d="M119.39,433.17a.56.56,0,0,1-.2-.27A.24.24,0,0,0,119.39,433.17Z" transform="translate(0 -0.28)"/><path class="cls-1" d="M130.58,428.85l-.35.11c.17,0,.22.1.3.18C130.53,429,130.47,428.86,130.58,428.85Z" transform="translate(0 -0.28)"/><path class="cls-1" d="M133.35,432c.05-.06.11,0,.16-.06v-.22C133.29,431.7,133.14,431.87,133.35,432Z" transform="translate(0 -0.28)"/><path class="cls-1" d="M130.81,430.47c0,.41.22.28.46.22h0C131.33,430.12,131.07,430.3,130.81,430.47Z" transform="translate(0 -0.28)"/><path class="cls-1" d="M131.33,430.68a.33.33,0,0,1,.22,0C131.58,430.45,131.46,430.62,131.33,430.68Z" transform="translate(0 -0.28)"/><path class="cls-1" d="M128.43,429.3c.11.11.1-.52.15-.35C128.74,428.44,127.81,429.54,128.43,429.3Z" transform="translate(0 -0.28)"/><polygon class="cls-1" points="130.93 431.54 130.87 431.03 130.72 431.43 130.93 431.54"/><path class="cls-1" d="M129.09,431.36l.37.15a.18.18,0,0,1,.11-.16C129.34,431.32,129.09,431.21,129.09,431.36Z" transform="translate(0 -0.28)"/><path class="cls-1" d="M129.57,431.35a.37.37,0,0,0,.31-.07A.65.65,0,0,0,129.57,431.35Z" transform="translate(0 -0.28)"/><polygon class="cls-1" points="130.41 431.66 130.3 431.55 130.04 431.5 130.41 431.66"/><path class="cls-1" d="M125,431.05l-.42.12c-.05.17.06.28.22.22S125.1,431.21,125,431.05Z" transform="translate(0 -0.28)"/><path class="cls-1" d="M126.21,432.48c-.1-.11-.1-.22-.16-.39l0,.62Z" transform="translate(0 -0.28)"/><path class="cls-1" d="M125,432.56c-.05.17-.63.46-.1.45C125,432.85,125.38,432.72,125,432.56Z" transform="translate(0 -0.28)"/><polygon class="cls-1" points="118.85 431.15 118.95 431.15 119 430.13 118.85 431.15"/><path class="cls-1" d="M113.23,433.53c.48.27.16-.62.58-.29.13-.24-.34-.27-.21-.47C113.29,433,113.14,432.85,113.23,433.53Z" transform="translate(0 -0.28)"/><path class="cls-1" d="M113.6,432.77l.16-.15A.46.46,0,0,0,113.6,432.77Z" transform="translate(0 -0.28)"/><polygon class="cls-1" points="52.48 422.71 52.19 422.47 52.36 422.83 52.48 422.71"/><path class="cls-1" d="M51.8,423.68V423l-.26.57C51.62,423.57,51.76,423.53,51.8,423.68Z" transform="translate(0 -0.28)"/><path class="cls-1" d="M94,433l0-.16c0-.17-.1-.19-.25-.23Z" transform="translate(0 -0.28)"/><polygon class="cls-1" points="89.81 431.85 89.89 431.87 89.8 431.27 89.81 431.85"/><path class="cls-1" d="M86.18,432.58c.14,0,.33-.08.47,0C86.32,432.61,86.2,431.84,86.18,432.58Z" transform="translate(0 -0.28)"/></g></g></svg>