<svg xmlns="http://www.w3.org/2000/svg" viewBox="0 0 493.66 564.8"><defs><style>.cls-1{fill:#231f20;}.cls-2{fill:#fff;}</style></defs><g id="Layer_2" data-name="Layer 2"><g id="Layer_1-2" data-name="Layer 1"><ellipse class="cls-1" cx="237.8" cy="90.84" rx="84" ry="87.93"/><path class="cls-2" d="M324.22,90.2c0,.81.4.52.47.64C324.57,89.47,324.11,90.23,324.22,90.2Z"/><polygon class="cls-2" points="322.24 76.88 322.45 77.08 321.7 75.21 322.24 76.88"/><path class="cls-2" d="M319.56,64.66c-.38,1.33,1.33,4.34,1.51,6.59l-.08.39.78.87c-.34-1.32-.78-2.82-1.2-4.22A27.42,27.42,0,0,1,319.56,64.66Z"/><path class="cls-2" d="M318.89,57.8c-.11.48-.74-1.29.47,1.51,0-.16,0-.2,0-.3S319.1,58.4,318.89,57.8Z"/><path class="cls-2" d="M319.33,59c.49,1.25-.09-.9,0,0Z"/><path class="cls-2" d="M316.9,53.33l.92,1.52c0-.4-.58-1.86-.24-1.37C316.73,51.86,316.74,52.28,316.9,53.33Z"/><path class="cls-2" d="M315.76,52l.46.79C316.21,52.63,316.14,52.4,315.76,52Z"/><path class="cls-2" d="M317.18,54.49l-1-1.69c0,.28-.21.4.42.78C316.38,53.52,316.72,53.79,317.18,54.49Z"/><path class="cls-2" d="M317.52,55.53c.21,1,.56,2.2-.29.65C318.5,59.27,318.81,58.64,317.52,55.53Z"/><path class="cls-2" d="M318.68,64.26c.06.43.09.87.14,1.3l.53,1C319.08,66.07,318.89,64.11,318.68,64.26Z"/><path class="cls-2" d="M312.26,43.35c-.18,0,0,.71-.15.93l.78,1C312.65,44.69,312.13,43.53,312.26,43.35Z"/><path class="cls-2" d="M312.11,44.28c-.38-.53-.82-1-1.22-1.54C311.77,44.23,312,44.46,312.11,44.28Z"/><path class="cls-2" d="M314.91,52.06l1.76,2.68c-.68-1.08-1.31-2.18-2-3.23Z"/><polygon class="cls-2" points="308.24 37.05 309.15 37.77 307.61 36.44 308.24 37.05"/><path class="cls-2" d="M305.25,33.1c.73.47-.31-1.19.37-.62a20.73,20.73,0,0,0-2.67-2.4A13.2,13.2,0,0,1,305.25,33.1Z"/><path class="cls-2" d="M301.56,29c.42.36.9.7,1.39,1.09A8.25,8.25,0,0,0,301.56,29Z"/><path class="cls-2" d="M309.2,39.9a2.74,2.74,0,0,0-.5-1.5l.08.87Z"/><path class="cls-2" d="M308.78,39.3v0l-.91-1.38Z"/><path class="cls-2" d="M309.31,40.06l-.11-.16C309.21,40,309.22,40,309.31,40.06Z"/><path class="cls-2" d="M313,47.37c-.76-.89-2.11-2.81-1.33-.65C312.32,47.29,311.88,46.05,313,47.37Z"/><path class="cls-2" d="M309.37,41.15l1,1.79c.08-.09,0-.49.42-.07Z"/><path class="cls-2" d="M308.71,40.38c.23.25.45.51.66.77-.13-.22-.24-.45-.38-.67Z"/><path class="cls-2" d="M303.55,32a20,20,0,0,1-2.08-2.12c.72.93,1.44,1.92,2.18,2.8C303.86,32.67,304.37,32.92,303.55,32Z"/><path class="cls-2" d="M306.16,35.48l-.14-.14C306.06,35.45,306.11,35.54,306.16,35.48Z"/><path class="cls-2" d="M293.85,22.15l.07.18.08,0Z"/><path class="cls-2" d="M303.71,32.84a6,6,0,0,0,1.31,1.4l-1.37-1.61C303.56,32.62,303.52,32.63,303.71,32.84Z"/><path class="cls-2" d="M299.37,26.88c.24.41.54.85.86,1.3A4,4,0,0,0,299.37,26.88Z"/><path class="cls-2" d="M305.93,35l.1.09C305.93,34.83,305.91,34.89,305.93,35Z"/><path class="cls-2" d="M305.93,35a10,10,0,0,0-.91-.79c.35.41.69.79,1,1.1A3.19,3.19,0,0,1,305.93,35Z"/><path class="cls-2" d="M289.61,22.13c.18-.1.77.13,1.47.59a8.66,8.66,0,0,1,2,2c1.63,1.08,1.6-.71.8-2.41-.16.09-.25.18-1.93-1,.42.61,3,3.37,1.49,2.49-2.09-1.64-1.51-1.57-2.38-2.55.53,1.07-3.06-1.59-3.06-.65L290,21.92C289.94,22,289.18,21.65,289.61,22.13Z"/><path class="cls-2" d="M296.73,25l.62.56a23.9,23.9,0,0,1-1.71-2.41c-1.17-.8-1.48-.88-1.64-.85,1,.94,2,1.86,3,2.86Z"/><path class="cls-2" d="M300,28.27c-.75-.21-2.25-1.53-1.75-.32,1.66,1.78,1.41,1,2.53,2-2.73-2.84.94.68-.8-1.6.58.53,1.07,1,1.53,1.51-.44-.56-.86-1.12-1.24-1.65l0,.09h0c.08.16.09.23,0,.06l-.06-.05a.43.43,0,0,1-.24,0c-.71-.9,0-.21.24,0h.07l-1.43-1.39-1.49-1.32C297.9,26.2,298.68,26.9,300,28.27Z"/><path class="cls-2" d="M309.87,45.36c0-.13,0-.14,0-.16C309.72,45,309.65,44.94,309.87,45.36Z"/><path class="cls-2" d="M309.27,43.86a3.37,3.37,0,0,1,.91,1.13c.27.76-.18.1-.29.21.37.42,1.21,1.54.55-.09l-.18-.21a10.17,10.17,0,0,1-1.1-3.22A5.46,5.46,0,0,0,309.27,43.86Z"/><path class="cls-2" d="M304.88,35.84c-.71-.82-1.4-1.67-2.17-2.44.26.5.52,1,.75,1.52l.12-.21C304.62,36.25,304.6,35.76,304.88,35.84Z"/><path class="cls-2" d="M293.71,21.74l.63,0c-.63-.26-1.22-.55-1.86-.79C292.91,21.16,293.3,21.46,293.71,21.74Z"/><polygon class="cls-2" points="290.38 19 290.75 18.8 289.72 18.26 290.38 19"/><path class="cls-2" d="M167.19,133.74l.54.75C167.49,134.13,167.32,133.9,167.19,133.74Z"/><path class="cls-2" d="M164.19,127.78l-.24-.06C164.17,128,164.29,128,164.19,127.78Z"/><path class="cls-2" d="M191.5,14.48c-1.38.48-3,.91-2.63,1.19l.6.1A10.83,10.83,0,0,1,191.5,14.48Z"/><path class="cls-2" d="M155.47,73.93l.2-.37c-.1-.36-.16-.69-.23-1C155.43,73,155.45,73.44,155.47,73.93Z"/><path class="cls-2" d="M157.08,75.2l-.58,1.71A17,17,0,0,0,157.08,75.2Z"/><path class="cls-2" d="M191.25,160.53l1.11.28C191,159.82,191.48,160.44,191.25,160.53Z"/><path class="cls-2" d="M250.4,1.5a25.53,25.53,0,0,0-3-.66C248.84,1.28,250,1.81,250.4,1.5Z"/><path class="cls-2" d="M161.84,133.54c.34.5.55.67.62.61C162.1,133.66,161.88,133.38,161.84,133.54Z"/><path class="cls-2" d="M243.87.52c.21.06.42.1.64.15a17.6,17.6,0,0,1,2.89.17A7.68,7.68,0,0,0,243.87.52Z"/><path class="cls-2" d="M305.83,137.93a2.2,2.2,0,0,1,.2-.23C306,137.64,305.92,137.75,305.83,137.93Z"/><path class="cls-2" d="M323,102.54c0,.4-.1,1-.17,1.65A12.55,12.55,0,0,0,323,102.54Z"/><path class="cls-2" d="M275.93,9.41c.82.41.15,0,0,0Z"/><path class="cls-2" d="M279,13c-.19,0-.34-.07-.41,0A.64.64,0,0,1,279,13Z"/><path class="cls-2" d="M234.84,3.05h-.07C235,3.13,235,3.12,234.84,3.05Z"/><path class="cls-2" d="M277.06,10.23c-.28-.2-.61-.43-1-.66C276.24,9.69,276.53,9.89,277.06,10.23Z"/><path class="cls-2" d="M277,10l.69.41C277.81,10.37,277.74,10.28,277,10Z"/><path class="cls-2" d="M274.78,8.86a8.41,8.41,0,0,1,1.3.71c-.14-.11-.2-.17-.15-.16C275.69,9.28,275.36,9.11,274.78,8.86Z"/><path class="cls-2" d="M248.9,176.66l.19,0C249.94,176.38,249.56,176.46,248.9,176.66Z"/><path class="cls-2" d="M177.11,33.09l0-.09-.09.09Z"/><path class="cls-2" d="M175.37,35.69a5.31,5.31,0,0,1,1.69-2.6l-1.61,0Z"/><path class="cls-2" d="M176.27,146.82l-1.08-1.92c2.16,1.62,3.18,3.19,2.32,1.29-.61.31-2-1.25-3.28-2.93s-2.48-3.38-3.14-3.12l-.56-1.34c.21.34.32.35.54.69a3.34,3.34,0,0,0-1.56-2,5.23,5.23,0,0,1-2.11-2.4c-.52-1.16-.76-2-.21-1.35-.54-.77-1.11-1.52-1.63-2.31-.33-.74,0-.67.3.07-.65-1.27-1.33-2.52-2-3.8l0,0a27.51,27.51,0,0,1-1.69-2.19c-.25-1.08.35.45.4.13-.42-.69-.84-1.37-1.21-2.08,0-1,1,.7,1.6,2.2a2.87,2.87,0,0,0-.51-2.39,9.59,9.59,0,0,1-1.47-4c.27.69.59,1.36.91,2,.19-1.58-.56-3.15-.86-5.65-.09.62.38,5.13-.73,2.81a10.15,10.15,0,0,0-1-2.89c.46-.15,0-1.42-.47-3l.65,0a9.82,9.82,0,0,0-1.39-2.49c-.4-2,0-2.52.37-3.06-.45-3.21-.41,2.35-1.17-1.42-.13-1.36-.28-2.5-.5-3.7s-.56-2.46-.84-4.08c.08-1.91.41.31.55-.39l-.64-1.65c0-.41.15-.29.24-.22-.26-1.42-.65-.09-.89-2.33-.34-.3-.15-1.47.11-2.89a11.66,11.66,0,0,0,.22-4.51c.23-.68.36.35.62.15-.23-3.82-.19-3.27-.5-6.46.26-.87.47-1.75.78-2.6-.81,1.87-.95-.68-1-3-.35.66-.65,1.22-.81,1.61.1-1.2.14-2.4.31-3.59.2-.41.34,0,.47.62V71.9c.51-1.2.73-.47.88.48-.21.4-.45.79-.64,1.18.23.94.52,1.82.92,1.7a5.89,5.89,0,0,1,0-1.17c.07.25.14.41.22.32a3.14,3.14,0,0,0-.06-1.09l.87-.64-.23-.25c.49-1.45.9-2.92,1.48-4.34.07-1.66,0-3.27.24-5.08a28.31,28.31,0,0,1,1.36-6.39c0,1.42.7.58,1.25.88-1.11,1.1-1.21,3.86-2.11,6.39.5-1.32.68-.93.67-.56.16-.79.29-1.59.47-2.37l.57-2.35c.45.29.67-.83,1.38-1.9-1.28.5.74-3.57,1.4-5.44.37,0,.43.6-.64,2.73a4.6,4.6,0,0,0,1.1-2.81,4.1,4.1,0,0,1,1.09-2.8c-.28.52-.48.77-.44,1,.4-1.33,2.22-4.15,2.09-3.32l-.27.52c1-1.65,2.53-4.17,3.9-6.31.64-1.09,1.28-2.07,1.71-2.85a3.11,3.11,0,0,0,.58-1.62,3.25,3.25,0,0,1,.5,1.32c.29-1.22.67-2.4,1-3.6s.76-2.42,1.21-3.6c.14.94,3,.38,1.15,3a14.18,14.18,0,0,0,2.66-3c-.49.39-1.82.44-1.29-.25a40.45,40.45,0,0,0,4-2.44c-.77.55-.85-1,.31-2-.06.29.86.75.54,1.2.66-1.09,1.3-2.23,2-3.31-.59.75.5.83,1.33.55-.42.08,2.45-2,3.21-2.66l-1.41.73a8.94,8.94,0,0,0,2.9-3.07,9.28,9.28,0,0,1,3-3c-.29.49-.28,1.85,1.59.88a29.48,29.48,0,0,1,1.71-3,14.62,14.62,0,0,1,3.8-3.76l.81,0c.82-.52,1.64-1.07,2.48-1.57-.66.75-1.93,2.12-3.27,3.48s-2.71,2.85-3.66,3.87c1.47-.58.56.09,2.59-1,.87-.11-.89,1-1.48,1.35l2.42-1.18c.79-.41,1.6-.79,2.43-1.13-.25-.25.6-.84,1.48-1.42s1.79-1.09,1.58-1.32c-.87.46-1.71,1-2.55,1.52s-1.68,1-2.48,1.6c-.26-.24.26-1.08,1.35-2a16.27,16.27,0,0,1,2-1.45,16.83,16.83,0,0,1,2.56-1.22c1-.12-.23,1.4-.07,1.57a9.85,9.85,0,0,1,1.8-1.05,8.47,8.47,0,0,1,1.84-.65l-1.41.88c2.09-.45,3-2.06,5.67-2.14a8.94,8.94,0,0,1,1.71-.1c.59,0,1.08,0,1.1-.2-1.58-.41-2.51-2.58-1.69-3.41a37.58,37.58,0,0,1,6-.2c1.57.32-1.92,1.82-.58,2.09,0-.19.77-.56,1.09-.69,1,0-.27.63,1.71.17.22-.76,4.12-.5.86-.71a29.64,29.64,0,0,1,4.46-.44c-.8-.36,2-1.7,4-2-.12.17.35.39.57.48,1,0,2,0,2.82,0s1.64.12,2.42.18,1.55.11,2.36.2,1.67.18,2.63.26c.35.18,2.17.57,1.35.78a7.93,7.93,0,0,1,2.27-.07c2.19.88-2.63-.26-1,.67.19-.37,3.1-.17,4.8,0-.2-.34-1.16-.57-2.28-.67s-2.41-.06-3.27-.05c.08-.8,3.16-1.43,7.29-1,3.24.49,1.26.85,1.84.84a22,22,0,0,0,5.53.85,10.43,10.43,0,0,1,1.91.2,14.27,14.27,0,0,1,2.72,1.08c1.73,1.18-.29,1,0,1.54a15.69,15.69,0,0,1-3-1.16,14.78,14.78,0,0,0-2.42-1l2,.87a12.71,12.71,0,0,1-3.46-.86c.74.49,3.2,1.15,5.94,2.21a45.5,45.5,0,0,1,7.77,3.57c.83.17,2.18.69,1.68.18-.45-.22-.91-.4-1.36-.59-.52-.49.17-.33.8-.16s1.17.37.38-.17a21.47,21.47,0,0,1,6.45,3l.13.79A5.44,5.44,0,0,0,279,13a10.33,10.33,0,0,1,2.26,1.61,5.24,5.24,0,0,0,2.49,1.41l-1.42-1.47c.93.44,2,.87,3.1,1.4a14.18,14.18,0,0,1,3.13,2c-.57-1.18-.51-.3-1.54-1.95.8,1.57-5.37-3.71-3.8-1.52a6.26,6.26,0,0,0-1.9-1.87,16.18,16.18,0,0,1-2.37-2c0,.21.57.74-1.27-.36a2.27,2.27,0,0,1-.5-.06l-.12-.09.09.08c-.1,0-.11,0,0,0a3.9,3.9,0,0,1,.82.78,10.7,10.7,0,0,1-2.64-.92,22.41,22.41,0,0,0-2.64-1c-1.1-.62.57,0,0-.47l-1.69-.4c0-.47-2.82-2,.05-1.07l-2.48-1a17.25,17.25,0,0,0-4.76-1.91c-1.19-.49-3.23-.45-2.06-.48-1.38-.32-2.75-.63-4.15-.85V2.87c-4.06-1.09-8.5-1-13.15-2.2-.71,0-1.42,0-2.25,0s-1.78,0-2.95-.11l-.45-.4c-.91,0-2.26,0-3.5-.06a6.79,6.79,0,0,0-2.71.22,6.2,6.2,0,0,0-2.28-.3c-.48,0-1,0-1.56.07s-1.13.15-1.71.24c-2.35.31-4.79,1-6.37,1.16l0,.52c-1.07.2-2.1.51-3.2.83S215.29,3.55,214,4l.29.39a12.32,12.32,0,0,1-1.85.66c-.69.21-1.45.44-2.25.65a33.83,33.83,0,0,0-5.06,1.7,4,4,0,0,1,1.7-.73,12.46,12.46,0,0,0-3.24,1c-1,.49-2,1.08-3,1.66A32.47,32.47,0,0,1,195,12.6a7.36,7.36,0,0,1-2.06,1.25l.19-.15c-.09,0-.21.13-.34.21l-1.28.57a8.38,8.38,0,0,0,1.1-.44c-.64.43-1.57,1.13-2.45,1.85l-.68-.12-.21.16c-1,.53-.58.72.1.66a13.61,13.61,0,0,0-1,1.13c-.59,0-1.15.46-1.74,1a3.59,3.59,0,0,1-1.93,1.17,22.8,22.8,0,0,1-2.18,2.39c-1,1.05-1.85,2.11-1.78,2.62-.1-.06-.39.13.06-.28a11.75,11.75,0,0,0-2.55,2.58l-.82-.05c-.45.84-.84,1.73-1.26,2.58-1.39,1-2,1.35-1.26-.19-1.1,1.72-1.5,2.43-1.94,3a15.32,15.32,0,0,0-1.53,2.72l-.22-.37c-.71,1-1.48,2.83-2.13,3.26a17.19,17.19,0,0,0-2.17,2.58c-.82,1.25-1.83,2.77-2.78,4.47-2,3.37-3.84,7.4-5.52,10.5,1.57-.84-1.65,2.85-.9,3.44-.4.29-.89,1.15-.72,0-.91,3.47-2.12,5-2,7.6-.38.33-.19-.84-.45-.53a3.53,3.53,0,0,1-.32,1.48c-.26.32-.09-.56-.06-1.15a6.9,6.9,0,0,0-.27,3.48,1.72,1.72,0,0,0,.92,1.09,5.58,5.58,0,0,0-.58,4c-.36.58-.81,1.6-.52-.65-.34,1.23-1.49,7.66-.8,7.86a6.27,6.27,0,0,0-.13,2.1c-.13,1.42-.19,2.19-.21,3s-.05,1.53-.05,2.92l.12-.77c.72,1.11.17,2.31.32,4.56l-.08-.06a15.86,15.86,0,0,0-.08,2.61,8.06,8.06,0,0,0,.12,1.08,5.61,5.61,0,0,1,.11,1.06v2.58l.45-.33c.54.18.52,1.3.47,2.76a15.48,15.48,0,0,0,.41,4.64l.09-1.1a3.39,3.39,0,0,1,.17,1.4,13.34,13.34,0,0,1-.15,1.72,13.33,13.33,0,0,0-.24,3.23c0,.37-.29-.51-.45-1,.47,4.33.74.4,1.7,3.44-.17.66-1-.5-.52,1.6a19.1,19.1,0,0,0,1.55,3.61,19.43,19.43,0,0,1,1.94,4.93c0-.7,0-1.39.74-.1.5,1,.85,2.53,1.35,4a9,9,0,0,0,1.94,3.51c.07.28.07.41,0,.45.52.71,1.27,1.91,2,3a13,13,0,0,0,2,2.37c-.32,1.14,1.37,3.28,3,5.18s3.22,3.51,2.64,4c1.16,1.35,2.29,2.72,3.54,4h-.21c.55.64,1,1.17,1.47,1.61a12.9,12.9,0,0,0,1.2,1,12.34,12.34,0,0,0,1.81,1.11c.48.63,0,.33-.12.34,3.42,3.62,3.9,3.9,7.61,5.88l.05.65a7.9,7.9,0,0,1,1.35,1l1,.89,1.26,1a28.06,28.06,0,0,0,6.34,3.92c-.07,0-.2.06-.58-.06a33.36,33.36,0,0,1,3.93,2c1.36.71,2.68,1.53,4,2.18a26.73,26.73,0,0,0,3.55,1.53,4.2,4.2,0,0,0,2.57.12c1.18.28,2.38.49,3.58.68-4.42-1.46.89-.55-.85-1.38,1.76.41,4.35,1.86,2.18,1.31l-.31-.18c-.52.32.83.87,2.32,1.24s3.06.8,2.94,1.09a111.35,111.35,0,0,0,13.52,1.92,74.12,74.12,0,0,0,13.26-.2l-1.07-.61,3-.34c.81.06,1.14.42-1,.68a4.68,4.68,0,0,0,2.22-.34A4,4,0,0,0,252,179c4.2-.48-1.47,1.15-.2.93l1.73-.38h-.41a15.16,15.16,0,0,1,3.94-1.44c1.62-.24.92.24,1.56.12,0,.05.23,0,1-.22l3.68-1-1.63-.12c1.54-.72,3.39-1.08,1.55-1.12a12.46,12.46,0,0,0,3.28-.64c1.42-.4,3-1.1,4.6-1.73s3.06-1.45,4.26-2.06a20.85,20.85,0,0,1,2.49-1.22c1-.72,1.87-1.45,2.91-2.11s2.13-1.36,3.33-2.15c-.66.3-1.37,0,.71-1.31,0,.81,1,.3,2.29-.54.63-.4,1.33-.88,2-1.28a7.09,7.09,0,0,1,1.84-.91c-.9.32.45-.82,1.66-1.94s2.21-2.24.86-1.64c1.61-1.3.43.29,1.81-.53,3.23-3.75,7.89-7.58,11.35-12.68-.09-.18-.92.48-.35-.72l2.54-2.17c.62-1.05-.23-1.47,1.44-3-.29.19-.72.46-.35-.25a64.09,64.09,0,0,0,8-16.28c2-5.78,3.53-11.7,5.23-17.61-.62,1.57-.45.49-.28-.76-.18.8-.43-.08-.68,0,.4-1.65.88-3.29,1.23-5a7.67,7.67,0,0,1-.12-3.15c.09-1.31.07-2.57-.23-2.84l.08,1.6c-.35-1.08-.78-.34-1.25.6s-1.06,2.07-1.53,1.88c.35,1.19-.07,2.7-.58,4.36a25.94,25.94,0,0,0-.6,2.63,8.66,8.66,0,0,0-.1,2.84c-.33.79-.18-.76-.47-.36.26,1,.1,2.19-.55,4.25l-.05-.26a35.6,35.6,0,0,1-1,3.87,30,30,0,0,1-1.1,3.24c-.78,2.11-1.71,4.26-3.13,7.32l.64-.28a12.06,12.06,0,0,1-1.27,2.11c0,1.83,1.66-3.73,1.78-2-.85.7-1.79,3.08-2.95,5.29L310.1,132c-.29.5-.58,1-.85,1.39a4.26,4.26,0,0,1-1.44,1.58c-1.14,1.91.83-.28-.34,1.63l-.56.35,0,.68c-.81,1.23-1.53,1.64-1.78,1.54a8.77,8.77,0,0,0,.67-1.21,21.61,21.61,0,0,0-2,2.82,13,13,0,0,1-1.38,2.11c.49-.53.95-1.07,1.39-1.63-.77,1.31-1.77,2.57-2.73,3.9s-2.08,2.59-3.18,3.85-2.2,2.52-3.34,3.67c-.55.59-1.09,1.18-1.6,1.76s-1.07,1.11-1.56,1.67l.48-.14a13.87,13.87,0,0,1-3.07,2.74c-.8.54-1.63,1.13-3.57,2.66l.11-.15a12.3,12.3,0,0,1-2.81,2.38c.89-.91-2.23.88-1-.27a29.87,29.87,0,0,0-2.65,2.21,12.88,12.88,0,0,1-1.52,1.78l-.84,0a9.11,9.11,0,0,1-3,2.26c1.68-1.19-1.66.21.18-1.19a29.86,29.86,0,0,0-5.54,2.5,15.74,15.74,0,0,1-1.93.92,4.17,4.17,0,0,1-1.89.21c-.94.88.16.64,1.36.26s2.44-1,1.86-.64c1.17-.12-1.53,1.49-3.15,1.9s-3.09-.29-7.07.81c.4-.09.41-.18.81-.27-1.57.09-2.86,1.11-4.83,1-.93.81-2.43.42-2.6,1.26l3.73-.89c-2.07.61-4,1.95-7.59,1.93a9.94,9.94,0,0,1,2-.76c-1.07-.1-2,.44-3.09.3.12-.38,1.26-.58,2.65-.79.7-.11,1.46-.19,2.18-.36a10.66,10.66,0,0,0,1.93-.63,8.24,8.24,0,0,0-2.4.5c-.79.18-1.3.26-.79-.24a4.86,4.86,0,0,1-2.93.84,11.59,11.59,0,0,0-3.84.57l.15-.49a8.06,8.06,0,0,1-2.16.39l1.45-.66c-2.25.58-4.36-.3-6.51-.12,2.26.06,2.51.2,2.44.38s-.47.44.49.58c-5.66.53-3.21-1.19-9.43-1.49.84.05,3.14.55,1.8.67a13.65,13.65,0,0,1-3.41-.91c-4.12-.45.56.56-1.23.62-1.32-.74-2-.12-3.9-.25l.08-.48c-2.3-.6-2.64-.51-2.95-.31s-.56.38-2.6-.34c.64,0,1.29-.14,1.93-.21-.74-.12-1.48-.22-2.21-.39l.59-.4a14.85,14.85,0,0,1-5.32-1.53c.41.5-.58.74-2.58,0-1.23-.82.91-.12-1.88-1.2a3.28,3.28,0,0,1,2.6.8c.18-.1.73-.06.91-.16a32,32,0,0,0-4.55-1.89,6.84,6.84,0,0,1,1,.54c-1.43-.31-2.8-.77-4.21-1.18-.54-.45,0-.35.56-.25a19,19,0,0,1-2.61-1c.48-.2.58-.55,2.28.08-1.29-.45-2.54-1-3.82-1.52-.17-.25-1.57-1.47-1.05-1.31-1.81-1.33-5.14-2.26-7.38-4.33a3.39,3.39,0,0,1-1-.5c-2.22-1.78-3.81-3.75-6.63-5.63-.33-.59-.59-1.23-.88-1.83-2-1.74,1.21,2.46-2.09-.46-2.32-2.1-.36-1.26-1-2.18a22.93,22.93,0,0,1-2.48-1.87,11.63,11.63,0,0,1-2.49-3.19C175.25,145.56,175.67,146.17,176.27,146.82ZM160.4,118.6a5.57,5.57,0,0,1,.87,2.19C160.48,120.31,160.59,119.67,160.4,118.6Zm-3-49.26a4.16,4.16,0,0,1-.54,2A9.79,9.79,0,0,1,157.39,69.34ZM266.6,5.74h-.08C265.18,5.06,265.65,5.31,266.6,5.74Zm2.79,1.33c.31,0,.32,0,.22-.13a4.91,4.91,0,0,1-1.6-.56A2.53,2.53,0,0,0,269.39,7.07ZM258.87,178l-.62,0C259.53,177.54,259.19,177.75,258.87,178Z"/><path class="cls-2" d="M156.89,75a.47.47,0,0,1-.3.22C156.63,75.52,156.72,75.54,156.89,75Z"/><path class="cls-2" d="M191,160.48l.08.06a.18.18,0,0,0,.13,0Z"/><path class="cls-2" d="M223.32,6.24a4.61,4.61,0,0,1-1.2,0C222.11,6.33,222.4,6.38,223.32,6.24Z"/><path class="cls-2" d="M284.23,14c-.58-.33-1.13-.69-1.73-1a6.06,6.06,0,0,1,1.41,1.11C283.94,14,283.71,13.69,284.23,14Z"/><path class="cls-2" d="M295.5,27c.24.16.43.42.67.57l.1-.21C295.41,26.55,294.69,26.09,295.5,27Z"/><path class="cls-2" d="M284.85,16.37c-.05.21.2.45.6.74s.94.65,1.52,1l-.2-.14C287.42,17.79,286.17,17,284.85,16.37Z"/><path class="cls-2" d="M287.23,18.31c.35.24.7.49,1,.75C288.51,19,287.86,18.71,287.23,18.31Z"/><path class="cls-2" d="M273.08,8.4c.55.37.6-.3.86,0C274.82,8.26,269.71,7.1,273.08,8.4Z"/><path class="cls-2" d="M285,18.09l-.11-.69-.86-.09C284.34,17.57,284.68,17.81,285,18.09Z"/><path class="cls-2" d="M276.12,12.18,278,13.32c0-.09.28,0,.58.15A10.11,10.11,0,0,0,276.12,12.18Z"/><path class="cls-2" d="M278.53,13.47a9.4,9.4,0,0,0,1.54.83C279.74,14.11,279,13.71,278.53,13.47Z"/><path class="cls-2" d="M282.47,16.56l-.47-.44c-.41-.3-.83-.58-1.26-.85C281.34,15.67,281.9,16.13,282.47,16.56Z"/><path class="cls-2" d="M254.37,4.15,252,3.86c-.27.13.34.35,1.22.44C253.81,4.29,254.69,4.38,254.37,4.15Z"/><path class="cls-2" d="M260.89,7.25a2.72,2.72,0,0,1-.88-.66l-.24.57Z"/><path class="cls-2" d="M254.3,5.68c-.26.13-3.39-.13-.51.37C254.06,5.9,256.35,6.3,254.3,5.68Z"/><polygon class="cls-2" points="219.46 5.31 220.04 5.16 219.73 4.19 219.46 5.31"/><path class="cls-2" d="M192.65,20c2.38-1.3.18-.88,2.38-2,.4-.56-1.8.9-1.37.37C192.44,19.47,191.65,19.83,192.65,20Z"/><path class="cls-2" d="M193.66,18.35c.19-.18.4-.38.61-.6A4.79,4.79,0,0,0,193.66,18.35Z"/><path class="cls-2" d="M324.11,95.9c.12-.6.18-1.21.28-1.83L324,95.25C324.06,95.47,324.08,95.69,324.11,95.9Z"/><path class="cls-2" d="M323.46,92.37l.66-.43-.56-1.1A4.47,4.47,0,0,1,323.46,92.37Z"/><path class="cls-2" d="M160.28,113.61l-.18-.09a3.24,3.24,0,0,0,.18,1.49Z"/><polygon class="cls-2" points="168.81 135.33 168.61 134.98 168.5 135.92 168.81 135.33"/><path class="cls-2" d="M181.19,150.49c-.53-.6-1.25-1.21-1.77-1.82C180.66,149.88,180.8,151.16,181.19,150.49Z"/><ellipse class="cls-1" cx="237.8" cy="90.84" rx="69.67" ry="72.94"/><path class="cls-2" d="M170.57,90.34c0,.64.38.41.45.5C171,89.78,170.47,90.36,170.57,90.34Z"/><polygon class="cls-2" points="170.45 79.66 170.59 79.87 170.44 78.25 170.45 79.66"/><path class="cls-2" d="M172.6,69.89c-.93.72-.86,3.53-1.44,5.22l-.23.25.39.9c.19-1.06.33-2.3.52-3.45A17.81,17.81,0,0,1,172.6,69.89Z"/><path class="cls-2" d="M175.75,65.37c-.38.21.17-1.14-.52,1.11a1.75,1.75,0,0,1,.15-.18C175.45,66.1,175.55,65.83,175.75,65.37Z"/><path class="cls-2" d="M175.38,66.3c-.35,1,.46-.55,0,0Z"/><path class="cls-2" d="M177,61.81l-.31,1.35c.27-.2.78-1.29.71-.83C177.82,61,177.56,61.19,177,61.81Z"/><path class="cls-2" d="M177,60.41l-.18.7C177,61,177.05,60.86,177,60.41Z"/><path class="cls-2" d="M176.45,62.57l.4-1.46c-.19.13-.41.06-.2.66C176.5,61.57,176.57,61.93,176.45,62.57Z"/><path class="cls-2" d="M176,63.31c-.43.66-.86,1.56-.61.18C174.58,66,175.18,65.79,176,63.31Z"/><path class="cls-2" d="M172,69.19c-.18.31-.32.64-.49,1v1C171.56,70.62,172.25,69.18,172,69.19Z"/><path class="cls-2" d="M181.14,54.43c-.09-.15-.59.19-.8.19l-.33,1C180.35,55.18,180.89,54.37,181.14,54.43Z"/><path class="cls-2" d="M180.34,54.62c.16-.49.37-1,.55-1.43C180.15,54.32,180.15,54.61,180.34,54.62Z"/><path class="cls-2" d="M176.41,59.85l-.49,2.53c.23-1,.42-2,.7-3Z"/><polygon class="cls-2" points="184.24 49.64 184.06 50.54 184.47 48.98 184.24 49.64"/><path class="cls-2" d="M186.44,46.55c-.15.67.92-.37.65.26a12.25,12.25,0,0,0,1.31-2.4A8.41,8.41,0,0,1,186.44,46.55Z"/><path class="cls-2" d="M189,43.19a7,7,0,0,0-.63,1.22A11.67,11.67,0,0,0,189,43.19Z"/><path class="cls-2" d="M182.32,51a2,2,0,0,0,1-.74l-.69.25Z"/><path class="cls-2" d="M182.64,50.56h0l.74-1Z"/><path class="cls-2" d="M182.23,51.16l.09-.12C182.25,51.06,182.22,51.08,182.23,51.16Z"/><path class="cls-2" d="M178.54,56.44c.22-.89.91-2.68-.29-1.25C178.19,55.9,178.88,55.09,178.54,56.44Z"/><path class="cls-2" d="M181.39,51.5l-.93,1.33c.11,0,.4-.13.27.3Z"/><path class="cls-2" d="M181.7,50.75c-.12.25-.21.5-.31.75a4.34,4.34,0,0,1,.35-.49Z"/><path class="cls-2" d="M187,45a9,9,0,0,1,1.31-1.92,22.48,22.48,0,0,0-1.88,2C186.4,45.33,186.33,45.78,187,45Z"/><path class="cls-2" d="M184.76,47.63l.07-.14C184.74,47.55,184.69,47.6,184.76,47.63Z"/><path class="cls-2" d="M194.21,37.11l-.15,0,0,.08Z"/><path class="cls-2" d="M186.21,45.21a2.72,2.72,0,0,0-.8,1.28,11,11,0,0,1,1-1.35C186.36,45.06,186.34,45,186.21,45.21Z"/><path class="cls-2" d="M190.45,41.33c-.3.2-.63.45-1,.72C189.82,41.88,190.45,41.5,190.45,41.33Z"/><path class="cls-2" d="M185.06,47.38l0,.09C185.23,47.35,185.17,47.34,185.06,47.38Z"/><path class="cls-2" d="M185.06,47.38a6,6,0,0,0,.35-.89,11.36,11.36,0,0,0-.58,1A1,1,0,0,1,185.06,47.38Z"/><path class="cls-2" d="M194.4,33.33c.08.19-.19.66-.66,1.16A6.86,6.86,0,0,1,191.88,36c-1,1.3.7,1.53,2.18,1.17-.08-.15-.2-.29.85-1.51-.57.18-3,2-2.22.82,1.45-1.6,1.39-1.08,2.33-1.58-1,.19,1.66-2.29.85-2.57l-1.31,1.42C194.46,33.65,194.88,33.07,194.4,33.33Z"/><path class="cls-2" d="M191.82,39.18l-.43.5a7.67,7.67,0,0,1,2-1.18c.67-.87.74-1.13.7-1.28-.8.71-1.62,1.4-2.38,2.16Z"/><path class="cls-2" d="M189.35,41.8c0-.68,1-2,0-1.57-1.29,1.46-.65,1.25-1.29,2.23,2-2.38-.43.82,1.27-.68-.36.5-.71.92-1,1.32.41-.38.82-.73,1.22-1.05l-.07,0h0c-.13.06-.18.07-.06,0l0-.06a.44.44,0,0,1,0-.21c.67-.6.18,0,0,.21,0,0,0,.06,0,.08h0c.63-.83,1.29-1.62,2-2.4A15.79,15.79,0,0,0,189.35,41.8Z"/><path class="cls-2" d="M178.26,53.25c.08-.07.1,0,.13,0C178.45,53,178.46,52.91,178.26,53.25Z"/><path class="cls-2" d="M179.16,52.25a2.33,2.33,0,0,1-.45,1.1c-.43.51-.18-.1-.32-.14-.12.46-.49,1.54.37.4l.06-.22c.8-1,2.11-2.13,2-1.91A4.1,4.1,0,0,0,179.16,52.25Z"/><path class="cls-2" d="M184,46.59c.47-.74.93-1.5,1.44-2.2-.37.26-.77.52-1.13.81l.22.09C183.55,46.43,184,46.34,184,46.59Z"/><path class="cls-2" d="M194.57,37.07l.05.57c.23-.48.44-1,.69-1.47C195.05,36.46,194.81,36.77,194.57,37.07Z"/><polygon class="cls-2" points="197.09 34.88 197.25 35.26 197.78 34.52 197.09 34.88"/><path class="cls-2" d="M300.17,128.53l-.29.76A6.51,6.51,0,0,0,300.17,128.53Z"/><path class="cls-2" d="M302.85,123.31l-.12-.21C302.72,123.39,302.75,123.53,302.85,123.31Z"/><path class="cls-2" d="M273.69,31.3c.71.92,1.39,2.07,1.53,1.64l0-.55A6,6,0,0,1,273.69,31.3Z"/><path class="cls-2" d="M306.27,76.78l.07-.35c-.18-.25-.38-.48-.55-.68C306,76.06,306.11,76.41,306.27,76.78Z"/><path class="cls-2" d="M308.17,77.27v1.57A9.73,9.73,0,0,0,308.17,77.27Z"/><path class="cls-2" d="M279.49,152.82l-.51.93C280.18,152.86,279.52,153.07,279.49,152.82Z"/><path class="cls-2" d="M228,21a14.82,14.82,0,0,0,2.38-.05C229.24,20.88,228.26,20.64,228,21Z"/><path class="cls-2" d="M297.18,124.39c-.14.46-.17.66-.07.7C297.28,124.64,297.32,124.35,297.18,124.39Z"/><path class="cls-2" d="M233.12,20.73l-.51-.06c-.68.14-1.38.21-2.22.31A5.72,5.72,0,0,0,233.12,20.73Z"/><path class="cls-2" d="M177.55,132.31l-.1-.25C177.39,132.07,177.45,132.17,177.55,132.31Z"/><path class="cls-2" d="M170.62,100.12c.07.31.13.81.19,1.29A5.55,5.55,0,0,0,170.62,100.12Z"/><path class="cls-2" d="M208.45,27.73c-.61.36-.08.1,0,0Z"/><path class="cls-2" d="M204.57,27.9c.11-.12.18-.24.14-.33A.49.49,0,0,1,204.57,27.9Z"/><path class="cls-2" d="M240.26,17.91h.06C240.11,17.82,240.14,17.84,240.26,17.91Z"/><path class="cls-2" d="M207.42,28.06c.26-.08.55-.18.86-.31A8.62,8.62,0,0,0,207.42,28.06Z"/><path class="cls-2" d="M207.64,28.18l-.56.25C207,28.54,207.12,28.54,207.64,28.18Z"/><path class="cls-2" d="M209.32,27.27l-1,.48c.13,0,.19-.05.17,0C208.63,27.63,208.88,27.48,209.32,27.27Z"/><path class="cls-2" d="M228.26,164.41l-.15-.07C227.33,164.42,227.67,164.44,228.26,164.41Z"/><path class="cls-2" d="M290.93,40.52l-.07-.05.06.1Z"/><path class="cls-2" d="M292.92,42.41a4.08,4.08,0,0,1-2-1.84l-.38,1.5Z"/><path class="cls-2" d="M292.36,140.19l1.53-1.24c-1,2.2-2.25,3.38-.66,2.32-.44-.55.78-2,1.85-3.53s2.12-3.11,1.64-3.59l.95-.89c-.22.29-.18.38-.4.67a2.29,2.29,0,0,0,1-2,4.51,4.51,0,0,1,.94-2.65c.62-.91,1.16-1.49.94-.75.29-.78.61-1.54.87-2.32.34-.63.47-.36.14.26.51-1.14,1-2.26,1.53-3.41l0,0c0-.58.2-1.82.3-2.41.55-.79,0,.49.2.34.17-.67.34-1.34.47-2,.62-.66.37,1.08-.28,2.36,2-1.27.38-1.69,2.53-5.35-.13.65-.31,1.28-.49,1.91,1.2-.92,1.38-2.5,2.52-4.5-.39.46-2.52,3.89-2.14,1.64a6.22,6.22,0,0,0,.67-2.6c.47.13.67-1,1-2.49l.59.25c.21-1.61-.16-1.57-.23-2.55.46-1.73,1-2,1.47-2.35.59-2.82-1.11,1.82-.66-1.55a12.64,12.64,0,0,0,.5-3.24,28.74,28.74,0,0,0-.07-3.64c.34-1.64.37.32.59-.26l-.4-1.5c0-.36.19-.24.26-.18-.14-1.24-.63-.13-.75-2.07-.35-.27,0-1.25.19-2.48a7.43,7.43,0,0,0,0-3.89c.14-.6.41.26.65.07a23.46,23.46,0,0,0-1.59-5.41c0-.78.12-1.56.11-2.33-.19,1.73-1.12-.32-1.89-2.06-.13.63-.24,1.15-.28,1.5-.29-1-.53-1.9-.88-2.82,0-.37.31-.13.68.29l-.27-.5c0-1.07.48-.62,1,0,0,.38-.1.76-.18,1.13.51.65,1.05,1.26,1.39,1a4.44,4.44,0,0,1-.33-.94c.13.17.25.28.29.18s-.14-.4-.38-.85l.55-.82-.32-.1c-.15-1.32-.24-2.66-.47-4-.72-1.28-1.48-2.44-2.34-3.75a45.09,45.09,0,0,1-2.66-4.82c.87.83.88-.1,1.47-.27-.18,1.38,1.52,3.13,2.08,5.42-.31-1.18.05-1,.24-.75-.31-.63-.6-1.27-.93-1.89l-1-1.84c.49-.09.07-1-.18-2-.62,1.14-1.79-2.61-2.87-4,.25-.24.77,0,1.56,1.87a3.15,3.15,0,0,0-1.33-2.25,3.69,3.69,0,0,1-1.44-2.13c.24.43.33.69.57.79-.82-.89-2-3.51-1.41-3.07l.24.44a38.8,38.8,0,0,0-3.45-5.38c-1.32-1.75-2.68-3-3.14-3a3.39,3.39,0,0,1,1.33-.22c-1-.52-2-1-3-1.43s-2-.88-3-1.26c.9-.1.83-2.76,3-1a11.06,11.06,0,0,0-2.36-2.55c.29.48.13,1.72-.41,1.23-.8-2-.66-1.3-1.95-3.58.47.69-.95.85-1.87,0,.26,0,.68-.9,1.11-.67-1.05-.44-2.07-.9-3.12-1.29.74.35.73-.63.37-1.33.11.39-2.12-1.81-2.91-2.2l.93,1a6.41,6.41,0,0,0-3.29-1.56A7.17,7.17,0,0,1,274,28.24c.47,0,1.69-.65.2-1.72-.51,0-1.67.14-3,.12a14.37,14.37,0,0,1-4.43-.58l-.38-.54c-.77-.22-1.51-.46-2.28-.65a29.51,29.51,0,0,1,4-.05,30.66,30.66,0,0,1,4.57.64c-1-.93-.12-.55-1.94-1.5-.49-.61,1.22.12,1.76.4-1.39-.81-2.74-1.68-4.17-2.4-.1.68-3.6-.95-3.67-.32.85.21,1.67.47,2.49.74s1.68.5,2.48.82c-.06.35-.93.41-2.17.26a12.14,12.14,0,0,1-2-.46,14.24,14.24,0,0,1-2.26-.8c-.68-.57,1-.86,1.06-1.09a7.53,7.53,0,0,1-1.77-.42,6.27,6.27,0,0,1-1.6-.58l1.47.14c-1.7-.86-3.15-.22-5.12-1.44a7.64,7.64,0,0,1-1.3-.81c-.44-.28-.83-.48-.94-.3,1,1,.62,3.41-.3,3.75-.23-.11-3.61-1.65-4.41-2.12-1.12-.83,2.13-1.06,1.18-1.77-.08.17-.82.27-1.11.29-.77-.31.43-.5-1.32-.74-.4.6-3.54-.54-.91.44-1.73,0-1.79-.42-3.8-.58.59.51-1.92,1.32-3.59,1.45.11-.17-.26-.4-.44-.51-.86,0-1.63-.09-2.34-.15l-2-.08c-.65,0-1.3-.06-2,0s-1.41.06-2.22.12c-.31-.16-1.9-.19-1.26-.55a6.31,6.31,0,0,1-1.85.61c-2-.32,2.22-.38.65-.89-.08.41-2.53.86-3.88,1.41.28.26,1.08.12,2-.1s2-.53,2.66-.75c.1.87-2.26,2-5.4,3-2.52.76-1.23-.28-1.65-.07a9.23,9.23,0,0,0-4.16,1.73,7.64,7.64,0,0,1-1.33.78,9.12,9.12,0,0,1-2.21.68c-1.71,0-.44-1-.92-1.22a10.89,10.89,0,0,1,2.54-.81,17.5,17.5,0,0,0,2.11-.4l-1.81.27a8.62,8.62,0,0,1,2.77-1,20.12,20.12,0,0,0-5.08,1.34c-2.31.8-4.83,1.9-6.68,2.55-.55.45-1.51,1.18-.92,1.11.35-.22.71-.41,1.07-.61.6-.05.15.33-.27.66s-.77.65-.05.38a23.61,23.61,0,0,1-4.71,3.26l-.69-.3a3.64,3.64,0,0,0,1.92-.95,6.83,6.83,0,0,1-2,1,3,3,0,0,0-1.83,1.42l1.56-.54c-.59.58-1.21,1.29-1.89,2a12.12,12.12,0,0,1-2.25,1.89c1.09-.06.33-.33,1.87-.6-1.53-.05,4.2-2.82,2.07-2.49,1.64-.11,2.32-1,4.28-1.38-.15-.15-.77,0,.74-.72a1.32,1.32,0,0,1,.23-.33l.11,0-.09,0c0-.06,0-.07,0,0a2.24,2.24,0,0,1-.89.13,6.66,6.66,0,0,1,1.71-1.4c.75-.48,1.54-.9,1.9-1.2.94-.34-.28.38.3.35l1.07-.91c.31.36,2.72-.31.68.82L214,25.1a14.07,14.07,0,0,0,3.76-1.21c1-.2,2.23-1.18,1.51-.61,1-.4,2-.8,3.08-1.13l.06.1c3.11-.73,6.43-2.09,10.2-1.58.54-.1,1.09-.21,1.73-.29a18.57,18.57,0,0,1,2.29,0l.36.38a12.66,12.66,0,0,1,2.68.12,5.6,5.6,0,0,0,2.09,0,3.84,3.84,0,0,0,1.68.62c.36.06.76.11,1.18.15s.85.12,1.29.16a32.84,32.84,0,0,1,4.87.69L251,22c1.63.41,3.25.59,5.31,1v-.46a7.25,7.25,0,0,1,1.51.33c.54.19,1.11.46,1.7.73,1.21.52,2.47,1.22,3.8,1.75-.25.09-.9-.23-1.34-.52a10,10,0,0,0,2.29,1.31,24.2,24.2,0,0,0,2.5.94,12.21,12.21,0,0,1,4.48,2.36,4,4,0,0,1,1.6,1,.7.7,0,0,0-.17-.09l.26.18c.25.26.49.53.77.8a5.58,5.58,0,0,0-.62-.7c.5.32,1.28.78,2.09,1.19l0,.6.17.11c.59.66.7.23.53-.34a8.08,8.08,0,0,0,1.13.47c.05.53.56.82,1.09,1.15a2.17,2.17,0,0,1,1.17,1.34,8.71,8.71,0,0,1,2.2,1.32c.91.65,1.85,1.25,2.32,1.11-.05.1.11.31-.25,0a9.1,9.1,0,0,0,2.1,2l-.13.73c.71.32,1.38.69,2.09,1.05.63,1.24.82,1.78-.41,1.12a15,15,0,0,1,2.21,1.82,24.5,24.5,0,0,0,1.93,1.64l-.4.13c.59.77,2,1.69,2,2.38a11.22,11.22,0,0,0,1.22,2.42c.57,1,1.36,2.27,2.1,3.63a40.68,40.68,0,0,1,3.76,8.61c.7-1.43.43,2.6,1.35,2.49-.15.4,0,1.17-.56.41,1.18,2.58.91,4.13,2.14,5.81-.19.38-.55-.48-.63-.16.11.2.46.8.38,1.13s-.33-.34-.57-.74a5.69,5.69,0,0,0,1.19,2.47,1.77,1.77,0,0,0,1.25.43,4.44,4.44,0,0,0,.82,3.2c-.17.55-.3,1.44-.69-.33.2,1,.5,6.18,1.09,6.23a4.32,4.32,0,0,0,.15,1.69c.16,2.28,0,2.49.15,4.73l.09-.62c.82.88.18,1.87.23,3.69l-.08-.06a12.12,12.12,0,0,0-.32,3,7.58,7.58,0,0,1-.48,2.9l.5-.17c.49.24.23,1.14-.14,2.27a12,12,0,0,0-.95,3.66l.41-.8a3.77,3.77,0,0,1-1.05,2.31,10.67,10.67,0,0,0-1.46,2.17c-.16.25,0-.46,0-.86-1.41,3.1.51.57,0,3-.45.35-.68-.81-1.18.8a12,12,0,0,0-.59,3,9.69,9.69,0,0,1-1.37,3.91c.44-.36.87-.74.6.42a19.51,19.51,0,0,1-1.65,2.89,5.85,5.85,0,0,0-1.23,2.93c-.18.17-.28.21-.34.19-.24.65-.7,1.67-1.1,2.65a9.23,9.23,0,0,0-.86,2.35c-1,.12-2,2-3,3.74s-1.94,3.31-2.54,2.8c-.88,1.1-1.74,2.22-2.69,3.26l0-.19A20.12,20.12,0,0,0,285,142a8.56,8.56,0,0,0-.82,1.51c-.52.37-.29-.05-.31-.15a24.14,24.14,0,0,0-5.49,5.41l-.58-.19a4.11,4.11,0,0,1-1.06.81c-.53.35-1.24.75-2,1.17a42.75,42.75,0,0,0-5,3.11c0-.07,0-.19.26-.39a16.61,16.61,0,0,1-3,1.68c-1.12.44-2.26.87-3.33,1.21a19.52,19.52,0,0,0-2.81,1.08,2.83,2.83,0,0,0-1.56,1.34c-.85.48-1.72.9-2.61,1.31,3.64-.94-.31.91,1.27.75-1.42.53-3.85.58-2.12,0h.3c.4-1-4.61.85-4.66.17a54,54,0,0,1-10.74,1.12,82.22,82.22,0,0,1-10.4-.67l.7.82-2.38-.35c-.6-.25-.74-.68.93-.42a2.91,2.91,0,0,0-1.75-.2,3.21,3.21,0,0,0-1.2.27c-3.22-.91,1.43-.6.43-.81l-1.37-.2.29.14a6.17,6.17,0,0,1-3.31-.11c-1.23-.45-.54-.59-1-.74,0-.05-.15-.11-.75-.21l-2.85-.91,1,.89c-1.37-.08-2.69-.91-1.58.18a8.41,8.41,0,0,0-2.34-1.35c-1.08-.46-2.32-1.06-3.58-1.56S209,155.51,208,155a13.72,13.72,0,0,1-1.89-1.13,11.51,11.51,0,0,1-2.64-1.12,23.41,23.41,0,0,1-2.68-1.72c.41.42.34,1.16-1.28,0,.68-.34,0-1-.88-1.77-.45-.4-1-.83-1.41-1.26a4.21,4.21,0,0,1-.94-1.37c.35.7-.77-.15-1.81-.93s-2-1.55-1.45-.46c-1.15-1.2.27-.44-.45-1.51-3.22-2.32-5.78-6.4-8.72-10.19-.19,0,.08.85-.76.17l-.71-2.61c-.61-.73-1.35-.18-1.75-2,0,.29,0,.72-.37.2-2.12-4.28-4.38-8.56-6.13-13.13a38.31,38.31,0,0,1-2.86-14.26c-.11,1.33-.31.49-.47-.5,0,.66-.43,0-.65.21.07-1.38.09-2.74.2-4.1a4.89,4.89,0,0,1-.53-2.46c-.08-1-.07-2-.41-2.25l.15,1.28c-.39-.84-.8-.23-1.21.58s-.78,1.84-1.27,1.74c.49,1,.27,2.28.2,3.77a11.29,11.29,0,0,0,0,2.32,6.62,6.62,0,0,0,.78,2.33c-.07.74-.4-.55-.56-.13a7.44,7.44,0,0,1,1.05,3.54l-.15-.18c.29,1.27.59,2.35.83,3.35s.44,1.94.7,2.88a59.51,59.51,0,0,0,2,6.64l.26-.58a9.51,9.51,0,0,1,.54,2.08c1.23,1-1.37-3.27-.11-2.37-.11.94.71,3,1.68,4.94l.67,1.43c.23.45.44.88.62,1.28a3.43,3.43,0,0,1,.43,1.83c1,1.68.17-.76,1.17.91l0,.59.58.22c.6,1.12.65,1.86.47,2-.16-.27-.54-.7-.73-1,.59,1.61,2.69,3.85,3,4.35-.34-.53-.65-1.08-1-1.64.79,1.08,1.7,2.15,2.56,3.31s1.84,2.25,2.81,3.35,2,2.18,3,3.12c.52.48,1,.94,1.55,1.39s1.07.82,1.59,1.2L191,147a20.54,20.54,0,0,1,2.72,2.29,14.82,14.82,0,0,0,3,2.46l-.16-.05a17.35,17.35,0,0,1,2.77,1.58c-1.05-.39,1.41,1.56.06,1a10.43,10.43,0,0,0,2.77,1.23,10.15,10.15,0,0,1,2,.34l.38.63a7.42,7.42,0,0,1,3.07.94c-1.71-.5,1,1.11-1,.61a13.23,13.23,0,0,0,4.78,2.24,6,6,0,0,1,3.12,1.56c1.15-.14.28-.6-.73-1s-2.11-.84-1.54-.71c-.76-.68,1.83-.05,3.12.47s1.86,2.06,5.38,3c-.35-.09-.39,0-.74-.11,1.26.56,2.65.33,4.2,1.05,1-.44,2.12.43,2.52-.3l-3.28-.43c1.9.15,3.74-.41,6.71.4a7.94,7.94,0,0,1-1.83.25c.87.34,1.74.09,2.64.41-.17.4-1.18.31-2.4.17a21.21,21.21,0,0,0-3.7-.28,6.31,6.31,0,0,0,2.13.33c.72,0,1.18.07.61.43a3.79,3.79,0,0,1,2.69-.1,7.84,7.84,0,0,0,3.39,0l-.19.46a13.2,13.2,0,0,1,1.93-.2l-1.33.57c2-.47,3.86.6,5.79.23-2,.06-2.24-.09-2.18-.28s.42-.41-.42-.6c4.89-.73,2.86,1.29,8.43.58-.75.17-2.85,0-1.7-.35a23.19,23.19,0,0,1,3.15.18c3.65-.59-.63-.41.89-.91,1.32.42,1.74-.54,3.27-1l.1.47c2.09-.25,2.29-.63,2.45-.89s.27-.54,2.12-.83c-.44.37-.9.68-1.36,1,.62-.21,1.24-.41,1.85-.66l-.24.64a18.63,18.63,0,0,1,4.63-1.62c-.57-.16,0-.9,1.69-1.55,1.26-.21-.49.7,1.9-.36a2.47,2.47,0,0,1-2.11,1.11c-.06.19-.45.48-.51.67,1.42-.13,3.22-1.22,4.11-1.57a5.72,5.72,0,0,1-1,.29c1.1-.66,2.13-1.45,3.18-2.18.62-.09.26.24-.11.57.68-.38,1.07-.8,2-1.38-.09.48.19.84-1.19,1.71,1-.65,2-1.39,3-2.08.31.06,1.85-.54,1.52-.17,1.89-.84,3.84-3.24,6.15-4.6a2.64,2.64,0,0,1,.67-.75c2-1.44,4.08-2.53,5.91-4.95.59-.2,1.13-.45,1.7-.68,1.55-1.76-2.23,1,.32-1.94,1.72-2.12,1.14-.33,1.94-.9.32-.63.78-1.48,1.35-2.4a10.55,10.55,0,0,1,2.33-2.7A15.31,15.31,0,0,1,292.36,140.19Zm13.45-25.08c-.08.55-.1,1.72-.53,2C305,116.33,305.36,116,305.81,115.11Zm.51-42.55a3.2,3.2,0,0,1,.28,1.72A6.51,6.51,0,0,1,306.32,72.56ZM215.4,24.26l0,0C216.6,24,216.19,24.07,215.4,24.26Zm-2.32.68c-.2.16-.15.21,0,.24a2.91,2.91,0,0,1,1.18-.6C214,24.53,213.71,24.57,213.08,24.94Zm8.15,134.76.43.23C220.59,159.82,220.91,159.76,221.23,159.7Z"/><path class="cls-2" d="M308,77.2a.42.42,0,0,1-.22.27C307.85,77.67,307.94,77.66,308,77.2Z"/><path class="cls-2" d="M279.58,152.65l-.07,0a.14.14,0,0,0,0,.12Z"/><path class="cls-2" d="M250.48,17.13a3.81,3.81,0,0,1,1,.43C251.48,17.45,251.27,17.31,250.48,17.13Z"/><path class="cls-2" d="M202.26,31.62c.4-.32.79-.66,1.21-.95a4.62,4.62,0,0,1-1.24.62C202.32,31.37,202.65,31.34,202.26,31.62Z"/><path class="cls-2" d="M189.89,37.86c-.13.21-.35.35-.47.56l.2.11C190.31,37.82,190.68,37.2,189.89,37.86Z"/><path class="cls-2" d="M200.17,31.09c-.34-.28-1.07.4-1.9,1.13l.16-.12C198.52,32.76,199.31,31.88,200.17,31.09Z"/><path class="cls-2" d="M198.08,32.38a9.17,9.17,0,0,1-.81.62C197.3,33.25,197.63,32.79,198.08,32.38Z"/><path class="cls-2" d="M210.4,26.42c-.51.12-.07.61-.4.58C209.7,27.71,212.81,25,210.4,26.42Z"/><path class="cls-2" d="M198.67,30.5l.61.18.29-.68C199.27,30.17,199,30.32,198.67,30.5Z"/><path class="cls-2" d="M206.34,26.19l-1.63.72c.06.06-.11.22-.33.39C205.33,26.76,206.45,26.31,206.34,26.19Z"/><path class="cls-2" d="M204.38,27.3a6.89,6.89,0,0,0-1.18.81A13.42,13.42,0,0,0,204.38,27.3Z"/><path class="cls-2" d="M200.6,29l.5-.21c.35-.23.71-.45,1.08-.65C201.64,28.41,201.13,28.71,200.6,29Z"/><path class="cls-2" d="M224.24,19.77l1.87-.49c.17-.21-.37-.21-1.07,0C224.6,19.47,223.91,19.67,224.24,19.77Z"/><path class="cls-2" d="M218.17,19.92a1.91,1.91,0,0,1,.94.11l-.11-.61Z"/><path class="cls-2" d="M223.72,18.33c.15-.21,2.74-1,.26-.52C223.81,18,221.91,18.6,223.72,18.33Z"/><polygon class="cls-2" points="253.13 19.43 252.64 19.32 252.49 20.33 253.13 19.43"/><path class="cls-2" d="M278.09,28c-1.86-1.54-.83.21-2.45-1.25-.6-.11,1.32,1.19.73,1C277.7,28.38,278.25,28.92,278.09,28Z"/><path class="cls-2" d="M276.37,27.79c-.21-.09-.44-.19-.69-.28A4.09,4.09,0,0,0,276.37,27.79Z"/><path class="cls-2" d="M170.69,94.8c0-.48.11-1,.16-1.44l-.32.94A4.16,4.16,0,0,0,170.69,94.8Z"/><path class="cls-2" d="M169.85,92.06l.64-.35-.61-.87A2.76,2.76,0,0,1,169.85,92.06Z"/><path class="cls-2" d="M308.28,111.37l-.12-.15c-.23.19-.33.53-.55,1.23Z"/><polygon class="cls-2" points="299.77 130.53 299.97 130.23 299.12 130.51 299.77 130.53"/><path class="cls-2" d="M289.73,145.07c.51-.51,1-1.24,1.5-1.76C290.24,144.56,289.07,144.71,289.73,145.07Z"/><rect class="cls-1" x="2.8" y="92.94" width="487" height="468.97" rx="4.92"/><path class="cls-2" d="M488.1,563.59a9.18,9.18,0,0,1-2.09.71,3.86,3.86,0,0,0-.79.22c-.23.12,0,.23-.34.28a6.65,6.65,0,0,0,3.49-1c.56-.36.66-.53.6-.55A2.59,2.59,0,0,0,488.1,563.59Z"/><polygon class="cls-2" points="491.29 516.1 491.46 516.92 491.04 510.08 491.29 516.1"/><path class="cls-2" d="M491.29,472.71c-.71,4.1.12,15.72-.14,23.45l-.16,1.28.58,3.48C491.48,491.53,491.09,479.33,491.29,472.71Z"/><path class="cls-2" d="M492.84,449.58c-.28,1.43-.24-5-.09,5.4,0-.52.05-.68.07-1C492.82,453.06,492.83,451.78,492.84,449.58Z"/><path class="cls-2" d="M492.82,454c0,4.57.23-3,0,0Z"/><path class="cls-2" d="M492.66,432.9l.25,6c.16-1.26.2-6.61.32-4.62C493.09,428.12,492.93,429.39,492.66,432.9Z"/><path class="cls-2" d="M492.14,427.2l.11,3.12A13.72,13.72,0,0,0,492.14,427.2Z"/><path class="cls-2" d="M492.47,436.93l-.22-6.61a5.49,5.49,0,0,0,.08,3C492.11,432.81,492.32,434.12,492.47,436.93Z"/><path class="cls-2" d="M492.36,440.67c-.16,3.38-.25,7.74-.5,1.7C492,453.88,492.46,452.19,492.36,440.67Z"/><path class="cls-2" d="M490.55,470.5l-.2,4.51.24,3.91C490.47,477,490.78,470.22,490.55,470.5Z"/><path class="cls-2" d="M493,395.41c-.15-.37-.4,2-.6,2.48l.18,4.44A64,64,0,0,1,493,395.41Z"/><path class="cls-2" d="M492.43,397.89l-.26-6.65C492.14,397.18,492.26,398.26,492.43,397.89Z"/><polygon class="cls-2" points="491.35 426.12 491.9 437.05 491.34 424.02 491.35 426.12"/><polygon class="cls-2" points="493.05 370.01 493.4 373.79 492.87 367.07 493.05 370.01"/><path class="cls-2" d="M493,353.17c.29,2.79.49-3.83.67-.88-.05-4.58-.3-8.48-.53-12C493.26,344,493.23,348,493,353.17Z"/><path class="cls-2" d="M492.81,334.38c.07,1.87.19,3.8.32,5.91C493.07,338.3,493,336.35,492.81,334.38Z"/><path class="cls-2" d="M492.25,379.91a29,29,0,0,0,.43-5.24l-.43,2.62Z"/><path class="cls-2" d="M492.24,377.38v-.09c0-2.84,0-4.81,0-5.65C492.27,372.36,492.26,374.09,492.24,377.38Z"/><path class="cls-2" d="M492.24,380.57c0-.25,0-.42,0-.66A1.47,1.47,0,0,0,492.24,380.57Z"/><path class="cls-2" d="M491.73,408.69c-.23-3.91-.49-12.05-.85-4.17C491.17,407.32,491.38,402.81,491.73,408.69Z"/><path class="cls-2" d="M491.71,383.82l-.1,7.06c.12-.14.28-1.41.4.52Z"/><polygon class="cls-2" points="491.57 380.36 491.71 383.81 491.75 381.2 491.57 380.36"/><path class="cls-2" d="M492.41,346.48c-.19-3.05-.21-6.39-.24-10.16-.08,4-.12,8.22-.12,12.19C492.18,349.07,492.42,350.81,492.41,346.48Z"/><path class="cls-2" d="M492.29,361.5c0-.21,0-.48,0-.68C492.23,361.23,492.21,361.57,492.29,361.5Z"/><path class="cls-2" d="M492.18,299.2l-.08.6a.76.76,0,0,1,.07.13Z"/><path class="cls-2" d="M492,349.18a56.76,56.76,0,0,0,.15,6.59c0-2.27-.07-4.68-.07-7.26C492,348.25,492,348.21,492,349.18Z"/><path class="cls-2" d="M492.61,324c-.09,1.59-.17,3.38-.24,5.26A44.21,44.21,0,0,0,492.61,324Z"/><path class="cls-2" d="M492.38,359.79l0,.46C492.49,359.25,492.45,359.38,492.38,359.79Z"/><path class="cls-2" d="M492.38,359.79c-.06-1.56-.17-2.79-.26-4,0,1.85.08,3.56.14,5.05C492.29,360.44,492.34,360.06,492.38,359.79Z"/><path class="cls-2" d="M489.43,288c.4.54.77,8.53.34,15.42.3,6.78,1.6,2.35,2.33-3.57-.17-.21-.33-.21-.57-7.2-.21,2.45-.5,15.49-.86,9.6-.21-9.24.14-7.57.35-12.07-.5,3.82-.72-11.76-1.45-9.75l.26,8.11C489.72,288.64,489.54,285.7,489.43,288Z"/><path class="cls-2" d="M492.06,313.1l.05,2.87c.07-3.28.23-5.62.54-9.94-.2-4.77-.34-5.77-.48-6.1l-.05,14.15Z"/><path class="cls-2" d="M492.11,328.87c-.43-2.25-.61-9.15-1.08-4.92,0,8.43.36,5.91.55,10.94-.11-13.6.24,3.91.48-5.92.07,2.68.1,5.08.11,7.35.07-2.45.14-4.81.2-7l0,.32v.06h0c0,.58-.09.78-.06.11v-.28a2.31,2.31,0,0,1-.16-.61c.09-3.94.11-.62.16.61,0,0,.05.15.07.17v0L492.11,316C492.05,318.85,492.06,322.46,492.11,328.87Z"/><path class="cls-2" d="M490,397.25c0-.42.07-.4.1-.44C490,395.93,490,395.6,490,397.25Z"/><path class="cls-2" d="M490.21,391.64a41.23,41.23,0,0,1,.19,5c-.13,2.79-.21,0-.35.13.11,1.94.31,6.8.52.71l-.06-1c.15-5.49.68-12.54.74-11.58A45.52,45.52,0,0,0,490.21,391.64Z"/><path class="cls-2" d="M491.05,359.86l-.21-11.34-.38,5.78.23-.3C490.6,360.46,490.88,359.06,491.05,359.86Z"/><polygon class="cls-2" points="492.39 297.9 492.85 299.41 492.2 292.85 492.39 297.9"/><polygon class="cls-2" points="492.34 283.16 492.73 283.7 492.49 279.81 492.34 283.16"/><path class="cls-2" d="M5.18,252.1l.11,3.33C5.25,253.85,5.22,252.84,5.18,252.1Z"/><path class="cls-2" d="M5.2,228,5,227.37C5.12,228.48,5.2,228.94,5.2,228Z"/><path class="cls-2" d="M315.74,90.45c-4.86-.37-10.28-1-9.7-.5l1.49.43C310.93,90.3,313.53,90.35,315.74,90.45Z"/><path class="cls-2" d="M67.71,93l1.42.13,3.28-.42Z"/><path class="cls-2" d="M64.28,94.83l-6.4-.28C59.31,94.65,61.37,94.74,64.28,94.83Z"/><path class="cls-2" d="M5.64,383.94l.44,3.89C6.08,381.74,5.85,384.42,5.64,383.94Z"/><path class="cls-2" d="M492.18,132.12c.17-4.19.24-7.52.26-10.45C492.19,126.72,491.82,130.79,492.18,132.12Z"/><path class="cls-2" d="M.57,242.6c.08,2,.17,2.91.27,2.85C.76,243.35.68,242.16.57,242.6Z"/><path class="cls-2" d="M492.44,109.56c0,.74-.07,1.47-.1,2.22.07,3.06.13,6.15.1,9.89A101.88,101.88,0,0,0,492.44,109.56Z"/><path class="cls-2" d="M305.09,559.43l1.08.06C306.27,559.43,305.79,559.42,305.09,559.43Z"/><path class="cls-2" d="M444.38,563.81l-5.72,0C439.69,563.88,441.42,563.87,444.38,563.81Z"/><path class="cls-2" d="M492.53,223.82c0,3.13,0,.5,0,0Z"/><path class="cls-2" d="M490.81,239a3.31,3.31,0,0,0-.21-1.25A4.88,4.88,0,0,1,490.81,239Z"/><path class="cls-2" d="M473.16,93h-.27C473.82,93.08,473.66,93.07,473.16,93Z"/><path class="cls-2" d="M492.33,228.53c.05-1.18.1-2.53.13-4C492.42,225.18,492.38,226.39,492.33,228.53Z"/><path class="cls-2" d="M492.53,227.9c0,1.07,0,1.92,0,2.73C492.56,231,492.61,230.67,492.53,227.9Z"/><path class="cls-2" d="M492.5,219.47c0,1.78,0,3.45,0,5.06,0-.62.05-.87.07-.71C492.52,222.91,492.51,221.61,492.5,219.47Z"/><path class="cls-2" d="M48.9,560.6l.67,0C52.72,560.46,51.34,560.49,48.9,560.6Z"/><path class="cls-2" d="M234.34,95l.36,0-.47,0Z"/><path class="cls-2" d="M223.11,95.27a67.1,67.1,0,0,1,11.12-.36l-3.71-1.25Z"/><path class="cls-2" d="M5.3,309.9,5.69,302c.64,9.52.42,16.41,1,9-1.36-1.11-.14-30.66-1.5-31.76l.29-5.2c0,1.49.07,1.73,0,3.21.65-10.12-1-7.52-.79-20.55.11-4.54.31-7.71.47-4.61L4.84,242c0-2.95.26-2.23.24.71L5,227.25l0,.12c-.21-2.21-.54-7.2-.68-9.63.19-3.92.14,2,.31,1l-.33-8.54c.35-3.49.69,3.6.64,9.5,1.36-8-.34-7.09.45-24.31l.18,8.06c.77-5.2.49-11.5,1-20.62-.25,2.17-1.21,18.27-1.55,9,.1-2.61.15-6.06-.12-11.06.48-.05.36-4.93.33-11.05l.64.42c-.18-6.61-.51-6.09-.79-10,.06-7.37.55-8.9,1-10.63.1-11.8-.79,8.14-.91-5.82.24-9.81,0-16.7-.4-28.43.22-6.87.39,1.2.57-1.27l-.51-6.08c0-1.49.17-1,.25-.77-.2-5.13-.64-.42-.81-8.48a3.15,3.15,0,0,1,.46-2.8,3.49,3.49,0,0,1,1.79-1.28,3.36,3.36,0,0,1,1.23-.15l1.86.09a134.66,134.66,0,0,0,16.19.08c2.46.18-1.18.39-.43.64,13.69-.53,11.74-.38,23-1.09l9.58.42c-7-.48,1.95-1,9.83-1.51-2.5-.24-4.63-.44-6.07-.54l12.57-.34c1.52.11.25.33-1.8.59l2.3-.15c4.49.24,2.16.6-1.06,1l-4.52-.39c-3.11.39-6,.82-5.37,1.19.82-.07,2.39-.14,4.12-.17-.81.1-1.33.2-.95.26a31.44,31.44,0,0,0,3.79-.24l2.86.72.69-.29,16.45.45c11.76-.72,22-1.77,40.67-2.07-4.64.52-1,.86-1.25,1.48-5.1-.66-14.46.27-24.14.14,5,.07,3.94.37,2.65.47l17.26-.6c-.39.51,3.67.38,8.18.59-3.41-1,12.86-.67,19.89-1,.43.33-1.25.68-9.82.6,9.45.75,12.21-1.18,21.49-.54a25.68,25.68,0,0,0-4,.13c4.88-.3,16.83-.06,14,.23h-2.09c13.89.12,42.28,0,44.35-.84a7.77,7.77,0,0,1-2.66,1.2L240,92.05c-2.19.73,6.19,2.47-5.32,2.88,3.3.1,7.39.23,14.37,0-2.26-.11-5.63-1.06-2.54-1.13,8.46.82,5.87.44,16.3,1.13-3.38-.15.38-1.3,5.72-1.26-.83.17.45,1.13-1.51,1.25l13.3-1.13c-3.32.21-.58,1,2.39,1.27-1.38-.22,11.5,0,15-.09l-5.64-.26c15,.17,14.83-1.58,29.73-1.52-1.8.23-4.45,1.43,3.12,1.57a213,213,0,0,1,28.56-3.21l2.53.33,10.11-.38c-6.3.87-24,2.69-33.62,3.4,5.62.26,1.57.39,10,.36,3,.31-4.59.47-7.06.49l19.59.2c-.87-.68,15-.68,14.24-1.24l-21.28.7c-.86-.67,12.3-1.91,26.19-1.79,3.53.27-2.64,1.19-2.35,1.42,1.8-.23,13.17-.44,14.45-.28l-5.89.36c7.73.25,12.61-.89,21.9-.25,3.21,0,9.57.87,10.13.47-5.23-.77-6.25-3.14-2.77-3.72,1.12,0,16.83.74,20.49,1.11,5.28.61-7.92,1.44-3.43,2a26.3,26.3,0,0,1,4.33-.49c3.37.16-1.4.57,5.92.49,1.22-.68,14.88.06,3.46-.58,7.15-.19,7.6.14,16,.11-2.68-.44,7.54-1.5,14.71-1.69-.42.17,1.19.4,2,.5l9.92.08c.75,0,1.51,0,2.21,0a4.65,4.65,0,0,1,1.94.65A4.74,4.74,0,0,1,489.44,97a11.06,11.06,0,0,1,.06,2q0,1,0,2.07c0,1.39,0,2.79-.06,4.23,0,2.9,0,5.95-.05,9.37-.16,1.26-.36,7.86-.66,5.05.12,2,.35,3.78.37,8-.59,8.16-.09-9.41-.8-3.19.4.54.55,10.91.79,16.92.62-1.85.12-13.88-.13-19.9.85,0,1.73,10.45,2.12,24.75.21,11.36-.54,4.92-.42,6.89-.15,21.35,1.47,18.19.86,35.91-.54,7-1.07.32-1.46,1.88-.2-9.26.35-14.21.32-20.49l-.25,7.73c-.18-3-.31-9.13-.16-12.49-.48,5.89-.09,36.05-.54,52.52.18,2.92.37,8,.59,5.58l-.08-5.21c.43-4.78.6,9.81.8,3.22.31,7,.79,14.82.54,24.66l-.61,1.85a65.94,65.94,0,0,0,.18-9.2c.27,4.1-.83,15.09,0,19.58l.42-6.9c.31,7,1,15.69.77,24.41.61-4-.07-2,.64-8.2-.88,5.37,0-22.31-.89-13.68.82-6.36.35-11,1-19.32-.2.26-.39,2.95-.29-4.37-.06-.33-.13-1.11-.18-1.61l0-.49,0,.4c0-.31,0-.34,0,.15-.09,1.75-.2,3.16-.31,3.73-.47-3.63-.45-15.27-.69-19.21.1-4.34.23,1.82.45-.55l-.36-5.88c.45-.58.74-11.54,1-1.31l0-9.21c.25-5.42.35-12.88.16-17.48.1-4.34-.5-11-.15-7.19l-.27-14.44.11-.13c.06-14.25-.75-29.34.07-45.63,0-2.4-.1-4.84-.16-7.68,0-1.42,0-2.95,0-4.61V97.88l0-.48a8.52,8.52,0,0,0-.12-1,7.51,7.51,0,0,0-2-3.72,7.41,7.41,0,0,0-1.7-1.7,7.58,7.58,0,0,0-1.81-.64,8.35,8.35,0,0,0-1-.15l-.53,0h-.39l-3,0-6.36-.09a90,90,0,0,0-9.26.1c-6.64-1-29.89-.22-40.72-.41l-.41.51c-7.46,0-14.61.11-23.87.32l.57.45c-8,.36-20.52-.32-33.14-.28a47.36,47.36,0,0,1,6.33,0c-15.08-1-31.82.74-45.5,0a80.23,80.23,0,0,1-8.26,0l.84,0h-1.4l-4.73-.23c1.43.1,2.79.19,4,.24-2.63,0-6.61.06-10.52.17l-1.67-.48-.9,0c-3.83-.18-3.08.22-1,.59-2,.07-3.77.17-5.17.29-3.11-.78-10.25.26-14.5-.57-2.63.4-19.64.3-21.73,1.15-.13-.11-1.28-.16.83-.17-4.36-.09-8.71-.19-12.62,0l-1.85-.61L241,92c-5.78-.37-8.17-.59-2.44-1.06-13.85.72-11.24.27-23,1l.57-.4c-4.21,0-10.94.55-13.48.22-9.42-.75-46.62-.1-70.81-.8,4.69,1.16-11.24-.52-12.2.38-1.41-.28-4.78-.43-.86-.67-12.34.27-18.54-.44-27.07.32-1.41-.27,2.65-.4,1.39-.56a38.65,38.65,0,0,1-5.21.07c-1.25-.16,1.81-.23,3.76-.35-12.6,0-13.88.9-14.8,1.69a72.92,72.92,0,0,0-14.19.2c-2.22-.26-5.93-.53,1.9-.63-4.41,0-26.92-.38-27.37.26-1.38-.16-6.16,0-7.32,0-9.89,0-10.76-.1-20.47,0l2.69.11a20.21,20.21,0,0,1-3,.35l-1.7.06a6.11,6.11,0,0,0-2,.48,5.9,5.9,0,0,0-3.25,3.55,5.78,5.78,0,0,0-.26,1.4c0,.51,0,.87,0,1.33v2.77l-.08-.22c-.56,17.95.26,7.74-.37,25.46l.48-1c1,1.65-.61,15.69-.21,26l.27-3.71c.35,5.61-1.4,15.69-1.53,21.33-.09,1.23-.15-1.94-.21-3.66-.61,14.76.63,1.92.77,12.91-.34,2-.86-2.61-.92,4.79-.28,3.69,1.1,21.47.45,31.57.26-2.22.52-4.43.72.68C1.3,223.63.22,237,1,244a4.16,4.16,0,0,1-.2,1.41c.21,6,.35,19.45.8,23.06C0,274,2.44,305.72.91,305.59L1,324l-.16-.48a174.14,174.14,0,0,0,.63,20.06c-.1,2.72-.25.74-.33.51-.3,17.2-.24,18.91.52,33.32l-.49,1.5c.29,3.91-.78,24.86-.2,41.73a7.08,7.08,0,0,1-.22-1.85c.58,19-1.38,45.42.43,52.38l.44,12.52c.14-16.2.78,2.41,1.08-4.25.11,6.37-.54,16.47-.63,8.64l.09-1.23c-.94-2.87-.34,20.13-1,19.7,0,15.94-.09,31.67-.22,47.16l0,2.9V557l0,.49a6.38,6.38,0,0,0,.13,1,6.9,6.9,0,0,0,3.53,4.62,7.08,7.08,0,0,0,1.89.66,7,7,0,0,0,1,.11h.78l11.47.09,22.62.1-3.44-.73,10.41,0c2.73.17,3.67.58-3.76.55a71.23,71.23,0,0,0,12.67-.51c14.55.3-5.68.85-1.22.87l6.06,0-1.36-.09A129.3,129.3,0,0,1,76,563.54c5.65.15,2.9.45,5.13.48,0,0,.18.05.7.05s1.37,0,2.71,0l13.12.06-5.25-.57c5.82-.29,12.34,0,6.29-.63,8.89,1,49,.36,54.41.68,8.14-.42,16.18-.42,26.14-.37-2.47-.12-3.95-.76,4.64-.69-3.14,1.34,15.73.59,22.67,1.55-6.2-.64,24.43-.16,14.69-1.07,7.17.11.44.51,5.88.82,17.06-.52,37.6.34,58.69.16.33-.17-3.21-.44,1.32-.7l11.13.88c4.17-.09,3.84-1,11.45-.41-1.08-.15-2.68-.37.11-.43,41.32.86,84.43-.7,126.39.91-5.68-.34-1.9-.37,2.44-.38-2.82-.09.07-.44-.49-.68l17.57.66c3.2-.66,18.83,0,20.67-.67l-5.57.11c7.4-.75-10.35-1.66-9.27-2.62-8.28.85-21.84-1.25-35.43,0-3-.19,2.56-.31,1-.53a109.29,109.29,0,0,1-15.32.31l.87-.1c-21.66.1-30.94-.3-55.28-.57l1.81.47c-5.23-.06-6.33-.21-8.78-.33-6,.72,14.68,0,9.22.83-6.94-1-36.88,0-41.56-1.11-8.05,0,2.35.55-5.69.55l-2.13-.3-2,.38c-5.28-.06-7.94-.43-8.13-.68,1.28,0,3.63-.07,5-.1-6.84-.34-19.29.12-21.64,0l7.73.18c-21.95.28-48.75-.11-70,.49l1.61.23c-16.2.41-13-.25-30.76-.06l.65,0c-3.56.22-8.31.33-13.18.31,4.49-.26-8.45-.51-2.56-.8-17.56.44-8.68.35-20.28,1.18l-2.68-.37a116.52,116.52,0,0,1-13.16.61c7.28-.32-5.67-.57,2.49-1-18.64-.81-27.67.82-36.22-.37-8.56,1,16.13.57,11.33.79,4,.34-7.06.77-12.91.67S95.43,560,80.45,560c1.49,0,1.59-.07,3.08-.06-5.6-.27-11,.35-17.86-.07-3.85.62-8.92,0-10,.75l13.74-.18c-7.79.21-15.09,1.13-27.92.68,1-.16,4.81-.37,7.44-.48-3.76-.24-7.23.15-11.12-.09,1.11-.79,16.7-.17,25-.78-4-.33-15.78.58-11.59-.28-6,1.09-14.75-.14-24.9.7l.67-.48c-1.6.08-4.93.3-7.88.29l5.35-.62a119.71,119.71,0,0,1-12,0l-2.93-.11-1.46,0H7.73l-.17,0a1.73,1.73,0,0,1-.31-.07,2.44,2.44,0,0,1-1.67-1.76A2.28,2.28,0,0,0,6.84,559a3.47,3.47,0,0,0,1.57.26c1.23.06,1.39.14,1.26.23s-1.72.42,1.77.6L8,560.18c-.31,0-.4,0-.59,0a3.55,3.55,0,0,1-.47-.08,3.22,3.22,0,0,1-.83-.34,3.06,3.06,0,0,1-1.48-2.33,2.62,2.62,0,0,1,0-.28c0-.08,0-.18,0-.34l0-.79.11-1.42c.07-.89.16-1.68.25-2.48.36-3.23.77-6.76.66-18.15.07,3.08-.29,11.57-.51,6.75.1-4.33.28-10.05.53-12.71-.1-15.09-.49,2.31-.78-4.11.58-5.14-.23-7.41-.42-14l.48-.05c.31-17.19-1-4.56-.63-20L5,496.33l-.17-8.07.55,1.67c-.41-8.78-.3-11.52-.15-20.12-.34,2-.87-1.12-.89-8.73.29-5.2.46,2.9.39-7.89A39.28,39.28,0,0,1,5,463c.15.48.3,2.41.45,2.9.33-5.59.08-14.05.07-18,0,1.51,0,3.3-.11,4.23l-.67-15.65c.18-2.46.33-.51.47,1.43,0-3.17-.27-5.37-.31-10,.39,1.21.79.92,1,7.52l-.44-14.91c.17-1,.47-7.65.62-5.72.23-8.26-.76-20.27-.46-31.22-.08-.57-.15-1.72-.21-4.05.09-10.29.57-19.42,0-31.62l.7-6.93c-.16-9.56-.89,9.38-1.15-6.54-.22-11.27.6-4.21.79-8.16a213.64,213.64,0,0,1-.5-25.7C5.35,304,5.25,306.7,5.3,309.9ZM5,192c.1,2.28.41,6.84.13,8.51C4.57,197.91,4.83,195.9,5,192ZM85.06,94a54,54,0,0,1-7.29-.1C79.92,93.82,82.36,93.84,85.06,94Zm407.07,95.58,0-.24C492.3,184.2,492.22,186,492.13,189.54Zm-.21,10.58c.07,1.07.14,1,.21.54a54.48,54.48,0,0,1-.1-5.82A29.38,29.38,0,0,0,491.92,200.12ZM82.3,563.84l-2.06-.12C84.89,563.58,83.59,563.7,82.3,563.84Z"/><path class="cls-2" d="M64.74,94.62a2.26,2.26,0,0,1-1-.26C62.87,94.44,62.85,94.54,64.74,94.62Z"/><path class="cls-2" d="M5.56,383.22v.36a1.37,1.37,0,0,0,.09.36Z"/><path class="cls-2" d="M431,94.9c-2.17-.07-3.39-.15-4.2-.24C426.65,94.77,427.64,94.87,431,94.9Z"/><path class="cls-2" d="M492.74,256.19l-.12-6.77c0,3.27-.08,4.44-.16,6.1C492.57,255.37,492.74,254.08,492.74,256.19Z"/><path class="cls-2" d="M489.76,315c.06,1,0,2.1.07,3.08l.22-.27C490,313.61,489.85,310.66,489.76,315Z"/><path class="cls-2" d="M491.14,262.47c-.4.54-.27,4.79-.19,9.54v-.84C491.52,272.57,491.33,267.51,491.14,262.47Z"/><path class="cls-2" d="M491,273.11c0,1.46,0,2.95,0,4.39C491.2,278.05,491,275.72,491,273.11Z"/><path class="cls-2" d="M492.19,213.54c-.1,2.25.52,1.42.36,2.69C493.06,218.74,491.92,201.22,492.19,213.54Z"/><polygon class="cls-2" points="489.8 266.31 490.31 264.61 489.9 261.95 489.8 266.31"/><path class="cls-2" d="M490.17,228.83l-.14,7.58a6.47,6.47,0,0,1,.17,2C490.22,233.77,490.32,228.65,490.17,228.83Z"/><path class="cls-2" d="M490.2,238.44c0,2.44,0,4.76.09,6.11C490.28,243.23,490.27,240.4,490.2,238.44Z"/><polygon class="cls-2" points="489.65 255.94 489.76 253.7 489.8 248.34 489.65 255.94"/><path class="cls-2" d="M490.27,147.27l-.14-8.27c-.18-.85-.28,1.41-.21,4.49C490,145.47,490.1,148.54,490.27,147.27Z"/><path class="cls-2" d="M488.9,172.31a25.24,25.24,0,0,1,.38-3.65l-.62-.25Z"/><path class="cls-2" d="M488.75,148.17c-.17-.83-.49-12-.45-1.52C488.47,147.49,488.61,155.78,488.75,148.17Z"/><polygon class="cls-2" points="418.16 93.2 420.27 93.19 419.97 92.17 418.16 93.2"/><path class="cls-2" d="M308.21,95.64c9.81.24,2.33-.63,11.19-.33,2.31-.24-7.24-.24-4.88-.45C308.6,95.11,305.49,95,308.21,95.64Z"/><path class="cls-2" d="M314.52,94.86l3-.16C315.83,94.77,315,94.81,314.52,94.86Z"/><polygon class="cls-2" points="467.5 564.36 473.81 564.57 469.73 564.23 467.5 564.36"/><path class="cls-2" d="M479.61,563.6l1.48.65,3.79-.58C483.46,563.69,480.69,563.75,479.61,563.6Z"/><path class="cls-2" d="M6.3,174.48,6.14,174a41.77,41.77,0,0,0-.21,5.41Z"/><polygon class="cls-2" points="5.81 260.05 5.83 258.57 5.24 261.33 5.81 260.05"/><path class="cls-2" d="M6.56,331.86c0-2.93-.11-6.38-.08-9.32C6.59,328.93,5.83,332.65,6.56,331.86Z"/></g></g></svg>